<?xml version="1.0" encoding="iso-8859-1"?>
<!-- Generator: Adobe Illustrator 18.0.0, SVG Export Plug-In . SVG Version: 6.00 Build 0)  -->
<!DOCTYPE svg PUBLIC "-//W3C//DTD SVG 1.1//EN" "http://www.w3.org/Graphics/SVG/1.1/DTD/svg11.dtd">
<svg version="1.1" id="Capa_1" xmlns="http://www.w3.org/2000/svg" xmlns:xlink="http://www.w3.org/1999/xlink" x="0px" y="0px"
	 viewBox="0 0 247.381 247.381" style="enable-background:new 0 0 247.381 247.381;" xml:space="preserve">
<g>
	<path d="M242.943,202.299c-0.252-0.112-25.186-11.355-57.303-32.184c-1.049-1.869-2.202-3.705-3.495-5.484
		c-0.955-1.315-1.978-2.596-3.064-3.839c1.609-0.368,3.189-0.803,4.734-1.306c30.663-9.962,45.698-45.252,46.323-46.75
		c1.428-3.419,0.145-7.367-3.02-9.294c-1.207-0.735-26.325-15.773-53.048-13.062c13.412-17.273,24.136-34.978,32.01-52.881
		c0.071-0.161,0.137-0.325,0.195-0.491c4.641-12.958,4.072-20.533-1.788-23.84c-7.468-4.216-15.064,2.574-26.474,16.574
		c-2.616,3.211-2.135,7.935,1.077,10.552c2.617,2.133,6.24,2.205,8.905,0.423c-7.802,15.58-17.945,31.011-30.288,46.12
		c-1.608-30.875-28.872-54.645-30.066-55.67c-2.811-2.414-6.963-2.414-9.773,0c-1.167,1.003-27.213,23.727-29.903,53.571
		C76.389,70.301,66.822,55.577,59.38,40.716c2.667,1.788,6.29,1.713,8.908-0.421c3.211-2.617,3.693-7.341,1.077-10.552
		C57.958,15.741,50.361,8.959,42.892,13.168c-5.86,3.308-6.43,10.883-1.791,23.841c0.059,0.166,0.125,0.33,0.196,0.491
		C49.211,55.491,60,73.281,73.506,90.637c-27.48-3.741-53.875,12.054-55.113,12.807c-3.165,1.928-4.448,5.877-3.02,9.296
		c0.625,1.497,15.664,36.786,46.327,46.747c1.546,0.503,3.125,0.938,4.735,1.306c-1.086,1.243-2.107,2.523-3.063,3.839
		c-1.716,2.36-3.198,4.815-4.489,7.326C28.23,191.559,4.674,202.193,4.435,202.3c-3.779,1.693-5.471,6.129-3.779,9.909
		c1.247,2.785,3.983,4.438,6.85,4.438c1.024,0,2.065-0.211,3.061-0.656c0.848-0.38,17.591-7.928,41.548-22.219
		c-2.746,18.503,1.011,34.877,1.256,35.91c0.808,3.404,3.848,5.77,7.293,5.77c0.203,0,0.408-0.008,0.614-0.024
		c1.617-0.132,39.823-3.529,58.776-29.616c0.955-1.314,1.856-2.681,2.703-4.098c0.847,1.417,1.748,2.783,2.703,4.098
		c18.955,26.089,57.161,29.484,58.778,29.616c3.707,0.288,7.053-2.141,7.907-5.745c0.25-1.057,4.161-18.143,1.055-37.148
		c25.033,15.082,42.719,23.057,43.614,23.457c0.995,0.445,2.036,0.656,3.061,0.656c2.865,0,5.602-1.652,6.85-4.438
		C248.417,208.429,246.724,203.991,242.943,202.299z M213.221,113.109c-5.138,9.302-16.646,26.461-34.039,32.111
		c-5.575,1.811-11.855,2.438-18.652,1.865c-3.479-0.279-6.688,1.845-7.763,5.156c-0.252,0.775-0.366,1.568-0.362,2.35l-1.55-9.034
		l17.216-16.78c2.044-1.993,2.779-4.974,1.897-7.689c-0.882-2.716-3.229-4.694-6.055-5.104l-10.657-1.549
		c4.369-3.348,8.91-5.813,13.543-7.318C184.112,101.493,203.576,108.617,213.221,113.109z M135.404,144.207l2.161,12.604
		l-11.318-5.951c-1.093-0.574-2.291-0.861-3.49-0.861c-1.199,0-2.398,0.287-3.49,0.861l-11.316,5.951l2.161-12.604
		c0.417-2.433-0.39-4.915-2.157-6.639l-9.157-8.925l12.654-1.839c2.443-0.354,4.555-1.89,5.647-4.103l5.658-11.467l5.659,11.467
		c1.093,2.214,3.204,3.748,5.647,4.103l12.654,1.839l-9.157,8.925C135.793,139.292,134.986,141.774,135.404,144.207z
		 M122.768,47.374c7.259,7.761,20.02,24.009,20.02,42.3c0,5.863-1.344,12.027-3.993,18.322c-0.154,0.365-0.268,0.738-0.36,1.111
		l-8.952-18.14c-1.264-2.56-3.871-4.181-6.726-4.181c-2.855,0-5.462,1.621-6.726,4.181l-8.953,18.144
		c-0.111-0.455-0.254-0.904-0.451-1.335c-2.589-6.219-3.901-12.308-3.901-18.102C102.726,71.468,115.515,55.159,122.768,47.374z
		 M66.334,145.221c-17.312-5.624-28.871-22.827-34.035-32.133c9.625-4.504,29.021-11.621,46.417-5.969
		c4.634,1.506,9.176,3.969,13.545,7.316l-10.659,1.549c-2.825,0.41-5.173,2.389-6.055,5.104c-0.882,2.715-0.146,5.695,1.897,7.689
		l17.216,16.78l-1.542,8.994c-0.003-3.771-2.81-6.968-6.567-7.438c-0.571-0.069-1.143-0.074-1.708-0.018
		C78.096,147.653,71.868,147.02,66.334,145.221z M178.656,219.45c-10.434-2.013-30.309-7.656-41.061-22.456
		c-3.398-4.678-5.912-10.358-7.472-16.886c-0.531-2.733-2.572-5.053-5.433-5.816c-3.917-1.039-7.954,1.216-9.118,5.097
		c-0.053,0.177-0.1,0.354-0.139,0.534c-1.559,6.608-4.087,12.351-7.516,17.071c-10.695,14.721-30.611,20.4-41.062,22.439
		c-1.292-10.575-2.044-31.269,8.65-45.986c3.399-4.68,8.03-8.829,13.767-12.334c1.597-0.891,2.814-2.353,3.421-4.096l-2.099,12.237
		c-0.483,2.814,0.675,5.657,2.984,7.336c2.31,1.676,5.372,1.897,7.898,0.57l21.277-11.188l21.279,11.188
		c1.098,0.577,2.296,0.861,3.489,0.861c0.008,0,0.015,0,0.022,0c4.142-0.001,7.498-3.358,7.498-7.5c0-0.629-0.077-1.239-0.223-1.823
		l-2.003-11.676c0.56,1.606,1.658,3.023,3.197,3.954c5.839,3.533,10.547,7.729,13.993,12.471
		C180.71,188.175,179.949,208.888,178.656,219.45z"/>
</g>
<g>
</g>
<g>
</g>
<g>
</g>
<g>
</g>
<g>
</g>
<g>
</g>
<g>
</g>
<g>
</g>
<g>
</g>
<g>
</g>
<g>
</g>
<g>
</g>
<g>
</g>
<g>
</g>
<g>
</g>
</svg>
