<svg id="Capa_1" enable-background="new 0 0 497 497" height="512" viewBox="0 0 497 497" width="512" xmlns="http://www.w3.org/2000/svg"><g><path d="m10.046 181.922c-4.668 1.623-7.922 5.265-9.303 9.515l204.96 66.596s-21.924-33.117-21.924-33.117l-72.09-36.382c-30.886-15.404-67.475-18.49-101.643-6.612z" fill="#fbcf72"/><path d="m7.174 190.76c-3.949-.59-6.127-.261-6.432.677-1.381 4.251-.889 9.109 1.934 13.167 20.665 29.698 52.087 48.709 86.134 54.398l79.69 12.937 37.202-13.906-27.877-14.794-75.058-27.248c-32.115-11.62-66.687-20.911-95.593-25.231z" fill="#faec8e"/><path d="m89.203 470.906c.101 4.941 2.559 9.161 6.174 11.788l126.672-174.35s-38.271 10.617-38.271 10.617l-56.878 57.319c-24.193 24.615-38.435 58.459-37.697 94.626z" fill="#fbcf72"/><path d="m96.721 476.368c-1.782 3.574-2.141 5.747-1.343 6.326 3.616 2.627 8.389 3.661 13.12 2.229 34.63-10.476 62.42-34.486 78.353-65.109l36.929-71.792-1.729-39.678-22.685 21.941-49.108 62.964c-20.977 26.953-40.496 56.963-53.537 83.119z" fill="#faec8e"/><path d="m388.503 484.923c4.731 1.431 9.504.397 13.119-2.229l-126.672-174.35s-1.729 39.678-1.729 39.678l36.937 71.807c15.934 30.617 43.721 54.62 78.345 65.094z" fill="#fbcf72"/><path d="m396.021 479.461c2.848 2.799 4.804 3.812 5.602 3.233 3.616-2.627 6.074-6.847 6.175-11.789.738-36.173-13.509-70.022-37.71-94.637l-56.866-57.307-38.271-10.617 13.857 28.355 44.707 66.162c19.152 28.277 41.661 56.115 62.506 76.6z" fill="#faec8e"/><path d="m494.324 204.603c2.823-4.057 3.315-8.916 1.934-13.166l-204.96 66.596s37.202 13.906 37.202 13.906l79.707-12.94c34.041-5.693 65.456-24.703 86.117-54.396z" fill="#fbcf72"/><path d="m491.452 195.765c3.542-1.844 5.11-3.391 4.805-4.329-1.381-4.25-4.635-7.892-9.304-9.515-34.174-11.88-70.769-8.79-101.659 6.62l-72.074 36.375-21.924 33.117 31.249-4.417 76.739-22.074c32.813-9.477 66.244-22.282 92.168-35.777z" fill="#faec8e"/><path d="m260.424 17.338c-2.986-3.938-7.455-5.908-11.924-5.908v215.508s24.721-31.084 24.721-31.084l12.324-79.804c5.106-34.134-3.266-69.886-25.121-98.712z" fill="#fbcf72"/><g fill="#faec8e"><path d=""/><path d=""/><path d="m251.132 17.338c-.659-3.938-1.646-5.908-2.632-5.908-4.469 0-8.938 1.969-11.925 5.908-21.859 28.831-30.229 64.589-25.119 98.729l12.322 79.787 24.721 31.084 5.456-31.084 2.72-79.804c1.128-34.134-.72-69.886-5.543-98.712z"/></g><path d="m328.5 271.938c0-4.774-2.238-9.019-5.714-11.766 2.457-3.687 3.274-8.415 1.799-12.956s-4.915-7.886-9.07-9.424c1.197-4.266.513-9.015-2.293-12.877-2.806-3.863-7.112-5.981-11.538-6.16-.179-4.427-2.297-8.732-6.16-11.539-3.863-2.806-8.612-3.49-12.877-2.293-1.539-4.155-4.883-7.595-9.424-9.07s-9.269-.658-12.956 1.799c-2.747-3.476-6.991-5.714-11.766-5.714s-9.019 2.238-11.766 5.714c-3.687-2.457-8.415-3.274-12.956-1.799s-7.886 4.915-9.424 9.07c-4.266-1.197-9.015-.513-12.877 2.293-3.863 2.806-5.981 7.112-6.16 11.539-4.427.179-8.732 2.297-11.538 6.16s-3.49 8.612-2.293 12.877c-4.155 1.539-7.595 4.883-9.07 9.424s-.658 9.269 1.798 12.956c-3.476 2.747-5.714 6.991-5.714 11.766s2.238 9.019 5.714 11.766c-2.457 3.687-3.274 8.415-1.798 12.956 1.475 4.541 4.915 7.886 9.07 9.424-1.197 4.266-.513 9.015 2.293 12.877 2.806 3.863 7.112 5.981 11.538 6.16.179 4.427 2.298 8.732 6.16 11.538s8.612 3.49 12.877 2.293c1.539 4.155 4.883 7.595 9.424 9.07s9.274.666 12.961-1.791c2.747 3.472 6.989 5.707 11.76 5.707 4.773 0 9.016-2.237 11.763-5.711 3.687 2.457 8.417 3.271 12.958 1.796s7.885-4.915 9.424-9.07c4.266 1.197 9.015.513 12.877-2.293 3.863-2.806 5.981-7.112 6.16-11.538 4.427-.179 8.732-2.298 11.538-6.16s3.49-8.612 2.293-12.877c4.155-1.539 7.595-4.883 9.07-9.424s.658-9.269-1.799-12.956c3.478-2.748 5.716-6.992 5.716-11.767z" fill="#fbf6c3"/><circle cx="248.5" cy="271.938" fill="#fbb860" r="45"/><circle cx="248.5" cy="271.938" fill="#fb8151" r="15"/></g></svg>