<?xml version="1.0" standalone="no"?>
<!DOCTYPE svg PUBLIC "-//W3C//DTD SVG 20010904//EN"
 "http://www.w3.org/TR/2001/REC-SVG-20010904/DTD/svg10.dtd">
<svg version="1.0" xmlns="http://www.w3.org/2000/svg"
 width="1280.000000pt" height="1280.000000pt" viewBox="0 0 1280.000000 1280.000000"
 preserveAspectRatio="xMidYMid meet">
<metadata>
Created by potrace 1.16, written by Peter Selinger 2001-2019
</metadata>
<g transform="translate(0.000000,1280.000000) scale(0.100000,-0.100000)"
fill="#000000" stroke="none">
<path d="M6095 12793 c-142 -6 -435 -34 -605 -59 -1011 -144 -1968 -527 -2800
-1120 -1333 -950 -2258 -2381 -2569 -3974 -86 -439 -115 -755 -115 -1240 0
-402 11 -570 60 -910 215 -1507 967 -2895 2112 -3898 1430 -1253 3309 -1802
5197 -1517 655 99 1270 294 1875 597 640 320 1168 699 1669 1199 1077 1076
1715 2442 1858 3979 24 258 24 842 0 1100 -77 827 -281 1557 -638 2281 -501
1017 -1265 1882 -2214 2511 -232 153 -408 254 -685 392 -977 485 -2031 706
-3145 659z m895 -257 c660 -69 1274 -226 1845 -473 1874 -812 3226 -2489 3614
-4483 77 -398 111 -755 111 -1180 0 -992 -218 -1905 -665 -2790 -901 -1780
-2630 -3022 -4610 -3309 -486 -71 -1087 -80 -1570 -25 -538 61 -1031 181
-1525 371 -2133 819 -3647 2767 -3909 5028 -35 301 -44 490 -38 835 6 328 11
407 47 690 291 2310 1913 4286 4135 5038 519 176 963 263 1615 316 121 10 805
-3 950 -18z"/>
<path d="M6080 12443 c-36 -2 -141 -10 -235 -19 -2282 -206 -4255 -1695 -5089
-3840 -197 -508 -324 -1047 -383 -1634 -25 -247 -25 -853 0 -1100 132 -1304
614 -2435 1461 -3420 116 -135 461 -480 596 -596 402 -346 811 -619 1259 -843
682 -341 1373 -538 2161 -618 247 -25 853 -25 1100 0 611 62 1155 193 1700
409 210 84 602 275 795 388 1013 595 1833 1466 2354 2500 349 691 547 1382
628 2180 25 247 25 853 0 1100 -144 1427 -719 2669 -1702 3679 -1144 1175
-2720 1833 -4355 1819 -124 -1 -254 -3 -290 -5z m285 -797 c-118 -157 -218
-291 -221 -299 -3 -9 119 -163 320 -403 179 -214 326 -391 326 -395 0 -5 -451
-50 -502 -49 -24 0 -52 33 -219 250 -106 137 -196 247 -200 244 -5 -3 -29 -34
-54 -69 l-45 -63 20 -203 c11 -111 18 -204 17 -206 -6 -5 -420 -43 -425 -38
-6 5 -131 1300 -132 1358 0 34 2 37 28 38 15 0 108 8 207 18 99 11 183 16 186
12 4 -3 16 -109 28 -236 13 -126 23 -230 24 -231 1 -1 76 113 167 254 l166
257 214 21 c118 12 236 22 263 23 l48 1 -216 -284z m1525 72 c253 -65 427
-226 470 -435 11 -52 11 -256 0 -266 -3 -3 -77 14 -165 39 -88 24 -177 49
-197 54 -35 10 -38 13 -38 49 0 140 -86 224 -230 225 -123 1 -226 -111 -280
-305 -25 -90 -27 -225 -4 -291 41 -121 193 -184 305 -125 38 20 109 101 121
139 3 8 392 -93 405 -105 8 -9 -31 -94 -74 -159 -79 -120 -208 -211 -349 -244
-93 -22 -262 -14 -359 16 -195 61 -346 183 -424 340 -57 117 -74 206 -68 350
10 221 92 415 232 555 176 176 395 231 655 163z m-3504 -277 c132 -25 254
-103 343 -217 28 -37 51 -71 51 -75 0 -5 -81 -50 -181 -99 l-181 -91 -43 40
c-83 77 -149 90 -240 47 -100 -46 -135 -104 -135 -219 0 -140 62 -280 175
-393 94 -94 156 -113 260 -78 107 37 157 131 135 254 -6 34 -10 63 -8 64 2 2
85 43 186 91 151 73 185 86 193 75 42 -66 60 -255 35 -364 -56 -239 -275 -434
-551 -491 -312 -64 -610 106 -765 438 -151 322 -82 661 172 852 176 132 392
197 554 166z m4927 -370 c155 -112 157 -114 143 -137 -9 -12 -72 -100 -141
-195 -69 -94 -124 -173 -123 -174 46 -36 313 -225 317 -225 4 0 69 86 145 190
88 121 142 188 149 183 26 -15 303 -217 320 -233 17 -15 -3 -45 -389 -576
-223 -307 -410 -561 -415 -562 -7 -3 -300 202 -342 238 -5 4 64 107 152 229
89 121 161 224 161 229 0 4 -70 59 -156 121 -149 108 -158 113 -171 95 -8 -10
-82 -112 -165 -227 l-150 -208 -32 24 c-17 13 -95 70 -173 126 -79 57 -143
105 -143 107 0 2 185 258 411 569 366 503 413 564 428 552 9 -6 88 -63 174
-126z m-6345 -706 c151 -31 343 -147 448 -272 134 -158 192 -320 182 -511 -10
-175 -87 -332 -231 -469 -88 -84 -168 -133 -267 -167 -253 -84 -518 -10 -736
208 -153 154 -234 330 -234 514 0 131 67 308 163 428 177 221 424 319 675 269z
m3672 -365 c894 -63 1693 -429 2321 -1061 1071 -1078 1350 -2711 698 -4087
-513 -1083 -1546 -1847 -2734 -2021 -705 -104 -1426 4 -2073 310 -699 331
-1291 900 -1651 1591 -592 1134 -536 2514 146 3590 365 576 893 1046 1498
1334 562 267 1186 387 1795 344z m4326 -545 c85 -127 114 -178 107 -187 -6 -7
-203 -276 -438 -598 -235 -322 -429 -586 -430 -588 -2 -2 -60 80 -130 183
l-126 185 53 63 c30 34 60 70 67 80 12 15 0 37 -105 197 -66 99 -125 180 -133
180 -8 0 -54 -12 -103 -27 -48 -14 -90 -24 -91 -22 -29 36 -237 352 -234 355
4 5 1416 352 1434 353 7 1 65 -78 129 -174z m-8213 -920 c63 -27 86 -42 83
-52 -10 -24 -399 -938 -401 -941 -5 -6 -1285 544 -1285 553 0 5 37 95 81 201
l81 192 77 -32 c453 -194 858 -366 869 -368 8 -2 50 84 117 242 58 135 112
260 120 277 l14 32 78 -33 c43 -18 118 -50 166 -71z m8762 -122 c25 -63 136
-386 133 -388 -13 -12 -1314 -463 -1320 -457 -12 13 -141 393 -135 399 7 7
1286 460 1303 462 7 1 15 -7 19 -16z m329 -1174 c10 -122 16 -222 14 -223 -2
-1 -160 -103 -352 -227 -256 -164 -342 -225 -325 -226 13 -2 178 10 367 25
188 15 342 27 343 27 1 0 9 -92 18 -204 11 -134 13 -205 6 -207 -17 -6 -1380
-112 -1384 -108 -4 4 -40 417 -37 420 0 1 165 111 366 244 l365 241 -65 -6
c-203 -18 -694 -55 -697 -52 -7 8 -36 398 -29 404 6 6 1245 109 1342 112 l51
1 17 -221z m-9760 132 c152 -75 246 -238 246 -426 0 -84 -57 -835 -64 -842 -6
-7 -1379 98 -1388 106 -11 9 49 775 68 866 28 141 91 232 192 282 49 24 69 28
142 28 130 0 204 -43 280 -163 9 -13 12 -14 17 -4 11 26 69 96 103 124 64 51
132 69 242 65 85 -3 106 -8 162 -36z m8855 -2042 l68 -204 237 -5 237 -5 -181
-150 c-99 -82 -180 -152 -180 -155 1 -3 25 -102 54 -220 29 -118 52 -217 50
-219 -1 -1 -78 50 -171 114 -92 65 -176 120 -185 122 -19 6 -86 -30 -228 -123
-110 -71 -160 -98 -167 -90 -4 4 90 348 112 408 3 8 -57 61 -148 131 -161 124
-207 163 -207 172 0 3 103 5 230 5 l230 0 24 48 c13 26 37 85 54 132 49 140
94 252 98 247 3 -2 35 -96 73 -208z m-8896 -304 l68 -205 237 -2 236 -3 -177
-149 c-97 -81 -177 -155 -177 -163 0 -8 23 -107 50 -220 28 -114 48 -208 46
-210 -2 -3 -79 48 -170 112 -92 64 -173 118 -180 121 -18 7 -76 -23 -206 -106
-140 -89 -200 -124 -200 -114 0 4 27 102 61 217 33 115 57 213 52 217 -4 4
-80 63 -168 132 -88 69 -166 133 -174 142 -12 15 5 16 221 16 l235 0 26 58
c14 31 44 107 65 167 54 148 73 195 81 195 3 0 37 -92 74 -205z m7450 -1729
c59 -77 104 -143 101 -147 -3 -5 -127 -102 -277 -215 -150 -114 -275 -210
-280 -214 -4 -3 16 -36 44 -73 l51 -66 102 78 c278 214 407 311 415 311 5 0
53 -57 105 -126 65 -86 93 -130 87 -138 -6 -6 -120 -94 -255 -196 -135 -102
-245 -189 -245 -193 -2 -16 95 -136 106 -132 6 2 136 99 288 215 151 116 281
213 288 216 8 3 55 -50 121 -136 l107 -141 -28 -22 c-120 -95 -899 -687 -904
-687 -7 0 -839 1088 -845 1105 -3 9 906 709 911 703 2 -2 50 -66 108 -142z
m-5798 -106 c129 -33 286 -128 382 -232 168 -183 206 -390 112 -613 -52 -124
-35 -125 -216 10 -87 65 -161 121 -166 125 -4 3 -1 23 8 43 17 40 20 133 6
170 -15 38 -71 88 -130 115 -43 20 -63 23 -103 19 -134 -16 -302 -180 -364
-356 -42 -119 -25 -213 51 -280 93 -81 189 -80 300 4 21 17 39 24 47 19 47
-29 318 -236 318 -243 0 -23 -135 -133 -202 -165 -101 -48 -166 -60 -289 -54
-179 9 -297 66 -449 218 -104 103 -154 186 -185 305 -51 198 14 445 169 641
188 238 453 340 711 274z m4669 -706 c31 -92 53 -171 49 -175 -4 -4 -120 -47
-258 -95 -137 -47 -269 -93 -291 -101 l-42 -14 26 -80 c21 -62 30 -78 42 -73
45 18 503 174 505 172 7 -11 107 -309 104 -312 -2 -2 -116 -42 -253 -90 -138
-47 -252 -88 -254 -91 -3 -3 34 -118 82 -256 48 -138 86 -252 84 -253 -13 -11
-400 -138 -404 -133 -8 8 -462 1311 -459 1315 3 4 997 351 1006 352 3 0 31
-75 63 -166z m-3129 -82 l190 -58 44 -737 c24 -406 41 -740 38 -743 -3 -3 -98
22 -211 55 -113 34 -208 61 -211 61 -2 0 -6 48 -7 106 l-3 107 -195 58 c-107
32 -202 58 -210 59 -8 0 -40 -38 -70 -85 -30 -47 -59 -83 -65 -81 -5 2 -99 29
-207 61 -141 42 -195 62 -190 71 4 6 203 275 442 598 248 334 441 586 450 585
8 0 100 -26 205 -57z m1879 -194 c3 -29 6 -110 6 -179 l0 -127 -72 -6 c-40 -3
-182 -8 -315 -12 l-243 -7 0 -84 0 -85 163 6 c89 4 212 9 273 12 l112 6 7
-156 c4 -85 5 -162 2 -169 -4 -11 -59 -16 -274 -22 -147 -4 -269 -8 -269 -8
-1 -1 3 -120 8 -265 6 -145 7 -266 4 -269 -7 -7 -418 -24 -424 -18 -7 6 -52
1388 -46 1394 5 5 754 36 970 39 l91 2 7 -52z"/>
<path d="M2695 9968 c-107 -40 -168 -129 -167 -244 1 -93 34 -158 136 -259
105 -104 183 -147 281 -153 87 -5 147 19 204 84 67 76 79 189 31 290 -36 76
-181 216 -264 255 -75 35 -170 47 -221 27z"/>
<path d="M6085 9889 c-187 -17 -395 -53 -560 -96 -151 -39 -410 -127 -510
-173 -108 -49 -268 -130 -338 -170 -43 -25 -98 -56 -122 -70 -24 -14 -51 -32
-62 -40 -10 -9 -30 -22 -45 -30 -15 -7 -36 -21 -45 -30 -10 -8 -40 -31 -68
-50 -184 -126 -500 -426 -657 -625 -119 -149 -198 -258 -198 -271 0 -6 -7 -17
-16 -25 -8 -7 -27 -33 -40 -58 -14 -25 -39 -68 -56 -96 -27 -44 -144 -274
-184 -360 -74 -164 -166 -455 -212 -675 -81 -383 -95 -853 -36 -1245 28 -188
100 -488 140 -583 8 -18 14 -37 14 -42 0 -11 63 -178 85 -225 86 -187 126
-265 196 -387 46 -79 87 -147 92 -153 5 -5 21 -29 35 -51 47 -72 109 -158 133
-185 13 -14 51 -60 84 -102 73 -94 365 -384 455 -452 36 -27 73 -57 83 -66 18
-19 105 -82 180 -131 23 -15 47 -32 53 -37 6 -5 37 -24 69 -43 31 -18 69 -41
83 -50 44 -28 292 -153 362 -183 36 -15 74 -31 85 -36 90 -38 102 -42 310
-108 86 -27 238 -65 325 -81 147 -27 185 -33 320 -46 186 -18 534 -18 720 0
135 13 173 19 320 46 87 16 239 54 325 81 208 66 220 70 310 108 11 5 49 21
85 36 70 30 318 155 362 183 14 9 52 32 83 50 32 19 63 38 69 43 6 5 30 22 53
37 75 49 162 112 180 131 10 9 47 39 83 66 90 68 382 358 455 452 33 42 71 88
84 102 24 27 86 113 133 185 14 22 30 46 35 51 5 6 46 74 92 153 70 122 110
200 196 387 22 47 85 214 85 225 0 5 6 24 14 42 24 57 72 234 105 388 96 444
95 987 -1 1440 -46 220 -138 511 -212 675 -40 86 -157 316 -184 360 -17 28
-42 71 -56 96 -13 25 -32 51 -40 58 -9 8 -16 19 -16 25 0 13 -79 121 -197 271
-112 141 -377 406 -518 518 -135 107 -245 187 -265 195 -8 3 -23 12 -33 21
-11 9 -38 27 -62 41 -24 14 -79 45 -122 70 -70 40 -230 121 -338 170 -217 99
-589 204 -865 244 -243 35 -605 46 -835 25z m307 -1239 c114 -28 240 -62 246
-65 1 -1 -9 -46 -22 -101 -14 -54 -48 -193 -76 -307 -29 -115 -50 -210 -48
-211 3 -2 58 -15 232 -52 37 -9 69 -14 70 -12 1 2 12 48 25 103 13 55 27 114
32 130 5 17 20 77 34 135 39 160 58 235 61 238 2 3 64 -11 179 -43 28 -7 83
-21 123 -30 40 -10 74 -21 77 -25 3 -4 -29 -142 -70 -306 -41 -165 -75 -304
-75 -310 0 -7 44 -29 98 -49 123 -48 283 -131 364 -188 211 -151 308 -325 308
-551 0 -242 -107 -469 -270 -575 -72 -47 -136 -76 -185 -86 -36 -6 -38 -8 -21
-19 57 -34 156 -103 191 -134 169 -151 235 -360 190 -607 -67 -368 -270 -624
-565 -714 -175 -53 -491 -55 -748 -5 -46 9 -85 14 -87 12 -5 -5 -139 -535
-149 -590 -5 -26 -12 -38 -24 -38 -9 0 -96 20 -192 44 -167 41 -175 44 -174
67 2 29 13 81 49 219 15 58 31 121 35 140 4 19 20 82 34 139 15 57 25 106 22
108 -3 3 -71 22 -151 43 -97 25 -148 33 -150 26 -1 -6 -13 -54 -25 -106 -12
-52 -28 -117 -36 -145 -30 -109 -77 -302 -82 -332 -3 -21 -10 -33 -20 -33 -14
0 -84 17 -232 55 -30 8 -74 20 -98 25 -52 13 -56 -29 39 358 39 155 68 286 65
291 -3 5 -18 11 -33 13 -16 3 -73 17 -128 32 -55 15 -118 31 -140 35 -46 10
-266 65 -340 86 -27 7 -67 17 -88 21 -22 4 -36 11 -34 18 8 19 69 159 93 213
13 28 24 54 24 57 0 2 13 33 29 68 15 35 31 71 35 81 4 12 12 16 23 13 84 -26
267 -68 303 -69 58 -1 104 25 124 72 20 45 446 1747 446 1781 -1 41 -35 104
-75 137 -21 17 -67 40 -104 52 -91 28 -226 61 -250 61 -11 0 -22 3 -25 8 -7
11 20 127 85 375 11 42 13 42 89 22 30 -9 73 -19 95 -24 61 -13 283 -69 340
-86 84 -24 218 -55 240 -55 22 0 33 29 70 190 13 58 66 269 79 315 8 28 17 65
21 83 4 17 11 32 15 32 5 0 64 -14 132 -30z"/>
<path d="M6361 7418 c-13 -51 -29 -115 -37 -143 -17 -63 -74 -289 -84 -335 -4
-19 -15 -64 -24 -100 -23 -94 -22 -98 22 -105 20 -4 57 -13 82 -20 86 -26 236
-54 342 -65 131 -13 257 0 336 36 201 91 258 362 112 528 -63 71 -195 148
-337 195 -82 27 -363 101 -386 101 -2 0 -14 -42 -26 -92z"/>
<path d="M6027 6078 c-37 -150 -74 -298 -82 -328 -26 -98 -47 -184 -52 -211
-5 -25 -2 -26 84 -48 48 -12 113 -29 143 -36 192 -49 360 -69 528 -61 101 4
136 10 192 31 78 30 148 87 185 149 32 55 58 170 50 220 -15 100 -36 139 -119
222 -68 67 -98 88 -186 132 -58 28 -159 69 -225 91 -115 37 -405 111 -436 111
-11 0 -32 -68 -82 -272z"/>
<path d="M10351 9129 c-107 -32 -197 -61 -199 -64 -6 -6 128 -205 138 -205 4
0 49 51 100 113 52 61 114 136 138 165 24 28 38 52 31 51 -8 0 -101 -27 -208
-60z"/>
<path d="M1791 6968 c-48 -25 -61 -65 -73 -227 -7 -93 -8 -155 -2 -160 5 -5
64 -12 130 -16 l121 -7 7 53 c25 222 18 294 -29 339 -30 28 -116 38 -154 18z"/>
<path d="M1307 6959 c-34 -20 -49 -69 -60 -205 -6 -74 -8 -136 -6 -139 3 -2
48 -7 101 -11 l96 -7 6 39 c14 100 18 233 6 268 -18 55 -93 84 -143 55z"/>
<path d="M4962 1764 c-78 -118 -118 -186 -110 -189 70 -23 230 -66 234 -62 2
2 3 101 2 219 l-3 216 -123 -184z"/>
</g>
</svg>
