<?xml version="1.0" encoding="UTF-8" standalone="no"?>
<!-- Created with Inkscape (http://www.inkscape.org/) -->

<svg
   xmlns:dc="http://purl.org/dc/elements/1.1/"
   xmlns:cc="http://creativecommons.org/ns#"
   xmlns:rdf="http://www.w3.org/1999/02/22-rdf-syntax-ns#"
   xmlns:svg="http://www.w3.org/2000/svg"
   xmlns="http://www.w3.org/2000/svg"
   xmlns:xlink="http://www.w3.org/1999/xlink"
   xmlns:sodipodi="http://sodipodi.sourceforge.net/DTD/sodipodi-0.dtd"
   xmlns:inkscape="http://www.inkscape.org/namespaces/inkscape"
   width="210mm"
   height="297mm"
   viewBox="0 0 744.09448819 1052.3622047"
   id="svg4450"
   version="1.1"
   inkscape:version="0.92.5 (0.92.5+68)"
   inkscape:export-filename="/home/adrian/ripple-wallet-template.png"
   inkscape:export-xdpi="1199.8927"
   inkscape:export-ydpi="1199.8927"
   sodipodi:docname="bitcoin_wallet.svg">
  <defs
     id="defs4452" />
  <sodipodi:namedview
     id="base"
     pagecolor="#ffffff"
     bordercolor="#666666"
     borderopacity="1.0"
     inkscape:pageopacity="0.0"
     inkscape:pageshadow="2"
     inkscape:zoom="1.28"
     inkscape:cx="252.24725"
     inkscape:cy="545.61332"
     inkscape:document-units="px"
     inkscape:current-layer="layer1"
     showgrid="false"
     inkscape:window-width="1920"
     inkscape:window-height="1029"
     inkscape:window-x="0"
     inkscape:window-y="27"
     inkscape:window-maximized="1" />
  <metadata
     id="metadata4455">
    <rdf:RDF>
      <cc:Work
         rdf:about="">
        <dc:format>image/svg+xml</dc:format>
        <dc:type
           rdf:resource="http://purl.org/dc/dcmitype/StillImage" />
        <dc:title />
      </cc:Work>
    </rdf:RDF>
  </metadata>
  <g
     inkscape:label="Layer 1"
     inkscape:groupmode="layer"
     id="layer1">
    <rect
       style="opacity:1;fill:#ffffff;fill-opacity:1;fill-rule:evenodd;stroke:#35a0e0;stroke-width:0.96500963;stroke-opacity:1"
       id="rect3347-3-1"
       width="579.03333"
       height="344.90564"
       x="132.53139"
       y="386.71091" />
    <rect
       style="fill:#35a0e0;fill-opacity:1;fill-rule:evenodd;stroke:#35a0e0;stroke-width:0.38246122px;stroke-linecap:butt;stroke-linejoin:miter;stroke-opacity:1"
       id="rect3347-2"
       width="99.621017"
       height="345.4881"
       x="32.238495"
       y="386.37231" />
    <text
       xml:space="preserve"
       style="font-style:normal;font-weight:normal;line-height:0%;font-family:sans-serif;letter-spacing:0px;word-spacing:0px;fill:#000000;fill-opacity:1;stroke:none;stroke-width:1px;stroke-linecap:butt;stroke-linejoin:miter;stroke-opacity:1"
       x="-523.10962"
       y="171.89632"
       id="text4979-73"
       transform="rotate(-90)"><tspan
         sodipodi:role="line"
         id="tspan4981-1"
         x="-523.10962"
         y="171.89632"
         style="font-style:normal;font-variant:normal;font-weight:normal;font-stretch:normal;font-size:20px;line-height:1.25;font-family:Sawasdee;-inkscape-font-specification:Sawasdee">Wallet</tspan></text>
    <g
       id="g843"
       transform="translate(0,32.444489)">
      <text
         transform="rotate(-90)"
         id="text4979-7-8-1"
         y="73.706177"
         x="-526.75732"
         style="font-style:normal;font-weight:normal;line-height:0%;font-family:sans-serif;text-align:center;letter-spacing:0px;word-spacing:0px;text-anchor:middle;fill:#f2f2f2;fill-opacity:1;stroke:none;stroke-width:1px;stroke-linecap:butt;stroke-linejoin:miter;stroke-opacity:1"
         xml:space="preserve"><tspan
           id="tspan3458-1-90"
           style="font-style:normal;font-variant:normal;font-weight:bold;font-stretch:normal;font-size:35px;line-height:1.25;font-family:Hind;-inkscape-font-specification:'Hind Bold';text-align:center;text-anchor:middle;fill:#f2f2f2;fill-opacity:1"
           y="73.706177"
           x="-520.67334"
           sodipodi:role="line">Vanilla </tspan></text>
    </g>
    <text
       xml:space="preserve"
       style="font-style:normal;font-weight:normal;line-height:0%;font-family:sans-serif;text-align:center;letter-spacing:0px;word-spacing:0px;text-anchor:middle;fill:#f2f2f2;fill-opacity:1;stroke:none;stroke-width:1px;stroke-linecap:butt;stroke-linejoin:miter;stroke-opacity:1"
       x="-559.22748"
       y="115.70915"
       id="text4979-7-8-9-5"
       transform="rotate(-90)"><tspan
         sodipodi:role="line"
         x="-559.22748"
         y="115.70915"
         style="font-style:normal;font-variant:normal;font-weight:bold;font-stretch:normal;font-size:35px;line-height:1.25;font-family:Hind;-inkscape-font-specification:'Hind Bold';text-align:center;text-anchor:middle;fill:#f2f2f2;fill-opacity:1"
         id="tspan3458-1-9-6">Wallet</tspan></text>
    <text
       xml:space="preserve"
       style="font-style:normal;font-weight:normal;line-height:0%;font-family:sans-serif;letter-spacing:0px;word-spacing:0px;fill:#000000;fill-opacity:1;stroke:none;stroke-width:1px;stroke-linecap:butt;stroke-linejoin:miter;stroke-opacity:1"
       x="156.42268"
       y="595.1106"
       id="text4979-6"><tspan
         sodipodi:role="line"
         id="tspan4981-64"
         x="156.42268"
         y="595.1106"
         style="font-style:normal;font-variant:normal;font-weight:bold;font-stretch:normal;font-size:15px;line-height:1.25;font-family:Sawasdee;-inkscape-font-specification:'Sawasdee Bold'">Wallet address (for receiving and checking balance):</tspan></text>
    <text
       xml:space="preserve"
       style="font-style:normal;font-weight:normal;line-height:0%;font-family:sans-serif;letter-spacing:0px;word-spacing:0px;fill:#000000;fill-opacity:1;stroke:none;stroke-width:1px;stroke-linecap:butt;stroke-linejoin:miter;stroke-opacity:1"
       x="-523.10962"
       y="685.48901"
       id="text4979-73-9-9"
       transform="rotate(-90)"><tspan
         sodipodi:role="line"
         id="tspan4981-1-6-0"
         x="-523.10962"
         y="685.48901"
         style="font-style:normal;font-variant:normal;font-weight:normal;font-stretch:normal;font-size:20px;line-height:1.25;font-family:Sawasdee;-inkscape-font-specification:Sawasdee">WIF</tspan></text>
    <g
       id="g3686-7-0-9"
       transform="matrix(0.0432513,0,0,0.0432513,680.61351,635.64035)">
      <path
         id="path3688-7-7-9"
         d="m 256,0 c 70.7,0 134.7,28.7 181,75 46.3,46.3 75,110.3 75,181 0,70.7 -28.7,134.7 -75,181 -46.3,46.3 -110.3,75 -181,75 C 185.3,512 121.3,483.3 75,437 28.7,390.7 0,326.7 0,256 0,185.3 28.7,121.3 75,75 121.3,28.7 185.3,0 256,0 Z"
         class="st0"
         inkscape:connector-curvature="0"
         style="clip-rule:evenodd;fill:#ffffff;fill-rule:evenodd" />
      <g
         id="g3690-4-0-4">
        <path
           id="path3692-0-1-5"
           d="m 234,181.8 v -6.4 c 0,-7 6.5,-12.7 14.7,-12.7 h 14.6 c 8.1,0 14.7,5.7 14.7,12.7 v 6.4 h 5.7 6.1 V 172 c 0,-10.8 -10.1,-19.5 -22.5,-19.5 h -22.6 c -12.4,0 -22.5,8.7 -22.5,19.5 v 9.8 h 1.3 z"
           class="st1"
           inkscape:connector-curvature="0"
           style="fill:#060707" />
        <path
           id="path3694-6-0-1"
           d="m 255.9,193.9 c -44.3,0 -80.5,36.4 -80.5,80.8 0,44.4 36.1,80.8 80.5,80.8 44.5,0 80.6,-36.4 80.6,-80.8 0,-44.4 -36,-80.8 -80.6,-80.8 z"
           class="st2"
           inkscape:connector-curvature="0"
           style="fill:#ffffff" />
        <path
           id="path3696-4-1-0"
           d="m 255.9,344.1 c 38.3,0 69.5,-31.1 69.5,-69.5 0,-38.4 -31.2,-69.5 -69.5,-69.5 -38.1,0 -69.3,31.1 -69.3,69.5 0,38.4 31.2,69.5 69.3,69.5 z"
           class="st3"
           inkscape:connector-curvature="0"
           style="clip-rule:evenodd;fill:#060707;fill-rule:evenodd" />
        <path
           id="_x31__1_-7-3-3"
           d="m 380.3,181.8 h -73.7 -6.1 -5.7 -22.3 -21.7 -10.4 -1.4 -28.3 -26.9 v -4.1 c 0,-8.3 -7.7,-15 -17.3,-15 h -17.3 c -9.6,0 -17.3,6.7 -17.3,15 v 4.1 h -0.1 c -14.6,0 -26.5,12 -26.5,26.5 v 124.8 c 0,14.5 11.8,26.3 26.5,26.3 h 248.5 c 14.6,0 26.5,-11.9 26.5,-26.3 V 208.4 c -0.1,-14.5 -11.9,-26.6 -26.5,-26.6 z M 255.9,355.5 c -44.3,0 -80.5,-36.4 -80.5,-80.8 0,-44.4 36.1,-80.8 80.5,-80.8 44.5,0 80.6,36.4 80.6,80.8 0,44.4 -36,80.8 -80.6,80.8 z"
           class="st1"
           inkscape:connector-curvature="0"
           style="fill:#060707" />
      </g>
      <path
         id="path3699-4-7-7"
         d="M 512,256 C 512,185.3 483.3,121.3 437,75 390.7,28.7 326.7,0 256,0 193,0 135.5,22.8 90.9,60.6 L 90.8,60.5 C 85.3,65.1 80.1,69.9 75,75 70,80.1 65.1,85.3 60.5,90.8 l 0.1,0.1 C 22.8,135.5 0,193 0,256 c 0,70.7 28.7,134.7 75,181 46.3,46.3 110.4,75 181,75 63,0 120.5,-22.8 165.2,-60.6 l 0.1,0.1 c 5.5,-4.6 10.7,-9.5 15.8,-14.5 5,-5 9.9,-10.3 14.5,-15.8 l -0.1,-0.1 C 489.2,376.5 512,319 512,256 Z M 256,42.9 c 58.9,0 112.1,23.9 150.7,62.4 38.6,38.6 62.4,91.9 62.4,150.7 0,51.1 -18.1,98 -48.1,134.8 L 121.3,90.9 c 36.7,-30 83.6,-48 134.7,-48 z m 0,426.2 C 197.1,469.1 143.9,445.2 105.3,406.7 66.7,368.1 42.9,314.9 42.9,256 42.9,204.9 61,158 91,121.2 L 390.9,421 C 354,451.1 307.2,469.1 256,469.1 Z"
         class="st4"
         inkscape:connector-curvature="0"
         style="clip-rule:evenodd;fill:#ec1c24;fill-rule:evenodd" />
    </g>
    <text
       xml:space="preserve"
       style="font-style:normal;font-weight:normal;line-height:0%;font-family:sans-serif;letter-spacing:0px;word-spacing:0px;fill:#000000;fill-opacity:1;stroke:none;stroke-width:1px;stroke-linecap:butt;stroke-linejoin:miter;stroke-opacity:1"
       x="156.09309"
       y="614.76978"
       id="text4979-6-0"><tspan
         sodipodi:role="line"
         id="tspan4981-64-9"
         x="156.09309"
         y="614.76978"
         style="font-style:normal;font-variant:normal;font-weight:normal;font-stretch:normal;font-size:15px;line-height:1.25;font-family:Sawasdee;-inkscape-font-specification:Sawasdee">__address__</tspan></text>
    <text
       xml:space="preserve"
       style="font-style:normal;font-weight:normal;line-height:0%;font-family:sans-serif;letter-spacing:0px;word-spacing:0px;fill:#000000;fill-opacity:1;stroke:none;stroke-width:1px;stroke-linecap:butt;stroke-linejoin:miter;stroke-opacity:1"
       x="156.42268"
       y="633.78577"
       id="text4979-6-7"><tspan
         sodipodi:role="line"
         id="tspan4981-64-5"
         x="156.42268"
         y="633.78577"
         style="font-style:normal;font-variant:normal;font-weight:bold;font-stretch:normal;font-size:15px;line-height:1.25;font-family:Sawasdee;-inkscape-font-specification:'Sawasdee Bold'">WIF:</tspan></text>
    <text
       xml:space="preserve"
       style="font-style:normal;font-weight:normal;line-height:0%;font-family:sans-serif;letter-spacing:0px;word-spacing:0px;fill:#000000;fill-opacity:1;stroke:none;stroke-width:1px;stroke-linecap:butt;stroke-linejoin:miter;stroke-opacity:1"
       x="156.23225"
       y="653.44495"
       id="text4979-6-0-9"><tspan
         sodipodi:role="line"
         id="tspan4981-64-9-7"
         x="156.23225"
         y="653.44495"
         style="font-style:normal;font-variant:normal;font-weight:normal;font-stretch:normal;font-size:15px;line-height:1.25;font-family:Sawasdee;-inkscape-font-specification:Sawasdee">__secret_key__</tspan></text>
    <image
       
       xlink:href="__address_qr__"
       width="150"
       height="150"
       preserveAspectRatio="none"
       style="image-rendering:optimizeSpeed"
       id="image4242"
       x="179.14046"
       y="415.21899" />
    <image
       
       xlink:href="__secret_key_qr__"
       width="150"
       height="150"
       preserveAspectRatio="none"
       style="image-rendering:optimizeSpeed"
       id="image4242-3"
       x="519.92566"
       y="414.62564" />
    <g
       id="g1506"
       transform="matrix(2.1049217,0,0,2.1162295,358.19197,424.70056)"
       style="stroke-width:0.44419321">
      <path
         id="path1502"
         d="M 63.033,39.744 C 58.759,56.887 41.396,67.32 24.251,63.045 7.113,58.771 -3.32,41.407 0.956,24.265 5.228,7.12 22.591,-3.314 39.731,0.96 56.875,5.234 67.307,22.6 63.033,39.744 Z"
         inkscape:connector-curvature="0"
         style="fill:#f7931a;stroke-width:0.44419321" />
      <path
         id="path1504"
         d="M 46.103,27.444 C 46.74,23.186 43.498,20.897 39.065,19.37 l 1.438,-5.768 -3.511,-0.875 -1.4,5.616 c -0.923,-0.23 -1.871,-0.447 -2.813,-0.662 l 1.41,-5.653 -3.509,-0.875 -1.439,5.766 c -0.764,-0.174 -1.514,-0.346 -2.242,-0.527 l 0.004,-0.018 -4.842,-1.209 -0.934,3.75 c 0,0 2.605,0.597 2.55,0.634 1.422,0.355 1.679,1.296 1.636,2.042 l -1.638,6.571 c 0.098,0.025 0.225,0.061 0.365,0.117 -0.117,-0.029 -0.242,-0.061 -0.371,-0.092 l -2.296,9.205 c -0.174,0.432 -0.615,1.08 -1.609,0.834 0.035,0.051 -2.552,-0.637 -2.552,-0.637 l -1.743,4.019 4.569,1.139 c 0.85,0.213 1.683,0.436 2.503,0.646 l -1.453,5.834 3.507,0.875 1.439,-5.772 c 0.958,0.26 1.888,0.5 2.798,0.726 l -1.434,5.745 3.511,0.875 1.453,-5.823 c 5.987,1.133 10.489,0.676 12.384,-4.739 1.527,-4.36 -0.076,-6.875 -3.226,-8.515 2.294,-0.529 4.022,-2.038 4.483,-5.155 z m -8.022,11.249 c -1.085,4.36 -8.426,2.003 -10.806,1.412 l 1.928,-7.729 c 2.38,0.594 10.012,1.77 8.878,6.317 z m 1.086,-11.312 c -0.99,3.966 -7.1,1.951 -9.082,1.457 l 1.748,-7.01 c 1.982,0.494 8.365,1.416 7.334,5.553 z"
         inkscape:connector-curvature="0"
         style="fill:#ffffff;stroke-width:0.44419321" />
    </g>
    <text
       id="text852"
       y="675.53381"
       x="156.42268"
       style="font-style:normal;font-weight:normal;line-height:0%;font-family:sans-serif;letter-spacing:0px;word-spacing:0px;fill:#000000;fill-opacity:1;stroke:none;stroke-width:1px;stroke-linecap:butt;stroke-linejoin:miter;stroke-opacity:1"
       xml:space="preserve"><tspan
         style="font-style:normal;font-variant:normal;font-weight:bold;font-stretch:normal;font-size:15px;line-height:1.25;font-family:Sawasdee;-inkscape-font-specification:'Sawasdee Bold'"
         y="675.53381"
         x="156.42268"
         id="tspan850"
         sodipodi:role="line">Mnemonic (BIP 38 __language__):</tspan></text>
    <text
       id="text856"
       y="695.19299"
       x="156.23225"
       style="font-style:normal;font-weight:normal;line-height:0%;font-family:sans-serif;letter-spacing:0px;word-spacing:0px;fill:#000000;fill-opacity:1;stroke:none;stroke-width:1px;stroke-linecap:butt;stroke-linejoin:miter;stroke-opacity:1"
       xml:space="preserve"><tspan
         style="font-style:normal;font-variant:normal;font-weight:normal;font-stretch:normal;font-size:12px;line-height:1.25;font-family:Sawasdee;-inkscape-font-specification:Sawasdee"
         y="695.19299"
         x="156.23225"
         id="tspan854"
         sodipodi:role="line">__mnemonic_row1__</tspan></text>
    <text
       xml:space="preserve"
       style="font-style:normal;font-weight:normal;line-height:0%;font-family:sans-serif;letter-spacing:0px;word-spacing:0px;fill:#000000;fill-opacity:1;stroke:none;stroke-width:1px;stroke-linecap:butt;stroke-linejoin:miter;stroke-opacity:1"
       x="157.6971"
       y="714.96838"
       id="text860"><tspan
         sodipodi:role="line"
         id="tspan858"
         x="157.6971"
         y="714.96838"
         style="font-style:normal;font-variant:normal;font-weight:normal;font-stretch:normal;font-size:12px;line-height:1.25;font-family:Sawasdee;-inkscape-font-specification:Sawasdee">__mnemonic_row2__</tspan></text>
  </g>
</svg>
