<?xml version="1.0" standalone="no"?>
<!DOCTYPE svg PUBLIC "-//W3C//DTD SVG 20010904//EN"
 "http://www.w3.org/TR/2001/REC-SVG-20010904/DTD/svg10.dtd">
<svg version="1.0" xmlns="http://www.w3.org/2000/svg"
 width="1280.000000pt" height="1177.000000pt" viewBox="0 0 1280.000000 1177.000000"
 preserveAspectRatio="xMidYMid meet">
<metadata>
Created by potrace 1.15, written by Peter Selinger 2001-2017
</metadata>
<g transform="translate(0.000000,1177.000000) scale(0.100000,-0.100000)"
fill="#000000" stroke="none">
<path d="M3375 11745 c-28 -28 -32 -61 -10 -92 15 -21 9 -30 -112 -197 -84
-115 -133 -174 -143 -171 -19 4 -609 175 -899 259 -118 35 -216 67 -217 72 -1
5 -5 21 -8 36 -9 40 -58 64 -97 47 -51 -20 -63 -68 -30 -111 l19 -24 -176
-412 -177 -412 -33 6 c-19 4 -38 1 -47 -6 -12 -10 -86 60 -435 406 -231 230
-417 420 -413 423 17 13 13 58 -7 84 -16 20 -30 27 -56 27 -64 0 -93 -59 -58
-119 15 -26 11 -39 -162 -504 -174 -467 -179 -477 -205 -477 -36 0 -68 -28
-75 -67 -5 -26 -1 -37 19 -57 16 -16 37 -26 55 -26 l28 0 113 -389 c63 -214
112 -393 110 -398 -2 -5 -53 -73 -114 -151 -92 -118 -113 -140 -130 -134 -38
12 -78 5 -97 -18 -24 -29 -23 -61 3 -94 18 -23 28 -27 62 -24 40 2 42 1 105
-75 59 -71 64 -80 54 -102 -21 -46 17 -104 68 -105 24 0 31 -14 99 -177 59
-143 71 -180 63 -197 -6 -12 -64 -91 -130 -176 l-119 -155 -37 3 c-76 7 -116
-77 -61 -128 20 -18 31 -22 61 -17 40 7 43 5 128 -70 l48 -43 -62 -180 -63
-180 -33 0 c-93 0 -100 -133 -7 -144 37 -5 70 21 78 62 4 15 11 36 17 47 10
17 9 18 -4 7 -12 -10 -18 -9 -28 3 -10 12 -1 46 44 182 31 92 60 173 64 180 5
8 84 -54 242 -191 208 -181 235 -207 232 -231 -5 -36 22 -73 60 -83 31 -8 31
-8 167 -408 135 -399 135 -400 116 -420 -11 -12 -24 -28 -30 -36 -8 -12 -75
-23 -300 -47 -159 -17 -296 -31 -302 -31 -7 0 -13 10 -13 23 0 12 -7 32 -15
43 -8 12 -13 23 -10 25 2 2 -14 3 -36 3 -42 -2 -67 -17 -78 -46 -5 -15 -26 -4
-136 78 -72 52 -138 100 -148 105 -44 25 -5 -8 133 -110 83 -61 150 -117 150
-124 0 -20 43 -57 67 -57 12 0 34 10 50 23 25 21 55 26 328 55 165 18 303 33
308 32 44 -2 -61 -60 -481 -267 l-487 -240 -22 24 c-31 33 -85 32 -112 -3 -24
-30 -26 -43 -10 -78 28 -60 115 -53 133 10 9 30 38 46 505 278 272 135 498
242 501 237 11 -17 49 -31 67 -24 59 20 81 85 43 123 -19 19 -26 22 -59 24
-21 2 -295 812 -277 819 7 3 199 -185 452 -441 771 -783 788 -802 776 -814 -7
-7 -12 -27 -12 -44 0 -44 42 -78 85 -70 16 4 35 7 40 8 6 1 70 -31 142 -71
136 -74 158 -97 115 -120 -28 -15 -915 -324 -932 -324 -8 -1 -104 57 -213 129
-161 105 -197 133 -193 148 14 57 -33 109 -89 98 -52 -10 -77 -80 -43 -119 15
-17 9 -37 -82 -263 l-98 -245 -173 -61 c-161 -57 -176 -60 -196 -46 -14 8 -36
12 -55 9 -28 -4 -40 1 -78 37 l-45 41 42 -45 c32 -34 40 -49 33 -60 -5 -8 -10
-29 -10 -47 0 -34 37 -73 71 -73 20 0 17 8 93 -270 l46 -165 -172 -432 c-141
-353 -176 -433 -191 -433 -10 0 -32 -14 -49 -30 -24 -25 -29 -36 -23 -58 8
-31 33 -62 50 -62 16 0 25 -112 25 -312 0 -120 -3 -158 -12 -158 -10 0 -10 -2
-1 -8 9 -5 14 -130 19 -468 9 -564 19 -539 -141 -338 -58 74 -112 137 -118
141 -15 9 -17 12 112 -150 97 -122 102 -129 93 -160 -10 -35 -3 -66 19 -84 51
-42 119 -10 119 57 0 21 -5 42 -11 46 -7 4 8 26 38 58 l48 51 -51 -48 c-45
-43 -54 -48 -73 -38 -20 11 -21 18 -21 214 0 111 -3 426 -7 700 -4 373 -3 497
5 497 24 0 52 40 52 74 0 33 3 35 225 170 124 75 229 136 233 136 4 0 67 -218
140 -484 115 -418 131 -486 121 -509 -8 -17 -8 -34 -2 -54 9 -25 -28 -105
-404 -856 -385 -771 -415 -827 -438 -827 -34 0 -75 -42 -75 -75 0 -16 12 -38
30 -57 l30 -30 -40 -391 c-22 -216 -42 -402 -44 -415 -2 -12 0 -22 3 -22 6 0
92 787 91 828 0 6 8 12 17 12 9 0 25 7 35 17 17 15 30 12 221 -47 326 -101
555 -172 823 -255 l252 -78 0 -35 c0 -35 30 -71 58 -72 13 0 17 -31 39 -285
16 -187 24 -250 30 -243 2 2 -7 120 -20 263 -19 215 -20 261 -9 268 18 10 42
35 46 48 2 6 265 -70 692 -202 l688 -213 16 -35 c30 -64 111 -69 137 -9 15 38
7 65 -28 91 -30 23 -67 17 -97 -15 -18 -20 -23 -20 -62 -9 -112 33 -1332 412
-1333 414 -11 30 -34 59 -56 69 -23 10 -30 21 -34 53 -7 53 -65 714 -65 741 0
15 8 23 26 27 23 4 54 -28 309 -311 266 -296 282 -317 269 -336 -26 -38 -13
-80 33 -104 12 -7 29 -12 38 -12 26 0 65 46 65 78 0 27 33 54 393 324 358 269
395 294 412 282 10 -8 30 -14 45 -14 24 0 35 -22 208 -422 l183 -421 -21 -22
c-11 -12 -20 -34 -20 -49 0 -29 39 -76 64 -76 42 0 86 43 86 84 0 27 -41 66
-69 66 -25 0 -32 7 -51 53 -12 28 -95 218 -183 421 -158 364 -159 369 -143
397 22 38 20 66 -9 94 -30 31 -64 32 -99 4 -22 -18 -27 -28 -24 -58 l3 -36
-355 -267 c-470 -354 -426 -325 -450 -303 -19 17 -20 31 -20 298 l0 281 31 26
c43 36 43 74 -2 114 l-34 30 -3 473 c-1 260 1 473 6 473 24 0 52 43 52 80 0
45 -26 70 -72 70 -57 0 -91 -78 -53 -120 14 -16 -10 -58 -276 -484 -276 -442
-293 -466 -321 -466 -36 0 -78 -40 -78 -73 0 -30 73 0 -634 -256 l-579 -210
-17 21 c-16 21 -6 44 392 847 225 454 411 828 414 830 2 3 10 -1 16 -7 34 -34
108 12 108 67 0 44 -35 73 -83 69 -33 -3 -38 -1 -44 22 -3 14 -63 231 -133
484 l-127 458 31 19 c17 10 204 124 416 252 380 231 385 234 406 216 28 -26
70 -24 99 6 32 31 32 69 0 100 -28 29 -56 31 -94 9 -26 -15 -32 -12 -331 132
-168 80 -360 173 -427 205 l-122 57 60 149 59 148 351 122 351 122 529 -346
c384 -251 529 -350 529 -364 0 -60 57 -101 107 -77 24 11 35 30 49 84 1 6 212
183 467 392 387 316 468 378 478 366 6 -8 26 -14 44 -14 58 0 94 68 61 116
-13 19 2 31 305 244 176 124 325 230 332 235 7 6 80 59 164 118 134 94 155
106 182 101 20 -4 39 -1 56 10 25 17 25 16 198 -131 94 -81 177 -152 183 -158
6 -5 91 -77 187 -160 176 -149 176 -150 171 -185 -11 -70 64 -113 120 -69 25
20 28 27 23 64 l-4 43 481 481 c456 456 483 481 501 467 28 -21 58 -20 87 4
71 55 8 156 -77 124 -21 -9 -47 -61 -41 -82 8 -23 -963 -997 -978 -982 -13 13
-69 13 -83 -1 -8 -8 -90 57 -289 228 -154 131 -318 271 -365 311 -78 66 -85
75 -81 103 10 68 -74 104 -125 53 -25 -25 -27 -50 -10 -94 8 -19 -956 -702
-978 -693 -8 3 -15 11 -15 18 0 33 114 442 127 457 34 39 -20 103 -66 78 -12
-6 -26 -21 -30 -34 -9 -21 -15 -22 -242 -33 -129 -7 -469 -24 -757 -39 l-523
-27 -27 33 -28 33 108 355 c81 267 112 358 128 369 11 8 20 24 20 37 0 19 91
74 662 398 641 364 662 376 685 361 20 -13 28 -14 48 -3 33 18 40 45 21 75
-11 17 -26 25 -45 25 -32 0 -48 -14 -53 -49 -2 -20 -105 -82 -653 -393 -357
-204 -654 -372 -660 -374 -5 -2 -16 0 -24 5 -11 7 21 92 165 430 173 408 180
421 206 421 29 0 48 23 48 58 0 26 -35 56 -58 50 -15 -4 -94 69 -342 317 -202
202 -320 327 -315 334 14 23 -4 59 -36 70 -27 9 -33 8 -57 -16 -25 -25 -41
-29 -272 -60 l-244 -33 -24 23 c-26 26 -25 12 -48 983 l-7 301 299 225 c164
123 441 332 614 462 255 194 317 236 330 227 31 -23 60 -30 83 -22 39 15 50
37 44 84 -6 41 -4 46 109 200 64 86 121 157 127 157 7 0 310 -86 675 -192 623
-180 662 -193 662 -214 0 -33 48 -67 85 -61 29 4 33 0 145 -175 63 -99 151
-236 195 -304 44 -68 101 -156 126 -196 26 -40 116 -179 199 -308 84 -129 153
-239 153 -245 0 -11 -214 -319 -243 -349 -10 -10 -25 -16 -32 -14 -8 3 -202
285 -433 627 -230 341 -420 619 -422 617 -2 -2 186 -284 417 -626 401 -594
420 -625 410 -651 -9 -20 -9 -33 -1 -47 23 -43 85 -39 102 6 8 21 6 31 -11 54
l-20 27 111 158 c61 87 117 164 123 171 10 11 66 -69 285 -409 206 -320 269
-424 259 -432 -10 -7 -9 -8 3 -4 11 4 83 -100 273 -396 253 -391 259 -401 247
-432 -17 -49 -13 -74 18 -106 45 -45 107 -34 135 24 13 27 13 35 0 65 -8 19
-14 36 -14 37 0 2 -16 9 -35 15 -24 8 -40 8 -54 0 -18 -9 -24 -4 -54 42 -68
107 -454 704 -471 730 l-18 27 34 16 c32 15 27 15 -18 1 -19 -6 -50 37 -290
410 -148 229 -272 422 -276 428 -3 6 95 155 219 331 125 176 350 496 501 710
151 215 275 390 276 391 1 0 21 -1 46 -4 l45 -4 220 -391 c121 -215 238 -423
260 -463 110 -199 227 -404 231 -404 7 0 12 -9 -449 812 l-257 456 17 31 c16
28 17 33 3 58 -9 15 -27 33 -40 40 l-25 12 -5 263 -6 263 -2 -265 c-2 -264 -2
-265 -24 -275 -13 -6 -28 -21 -34 -34 -7 -13 -18 -28 -26 -32 -10 -7 -10 -9 2
-9 8 0 20 -11 26 -24 11 -23 -18 -67 -390 -593 -220 -313 -410 -580 -421 -595
-11 -14 -51 -72 -90 -128 -38 -56 -75 -106 -81 -111 -8 -7 -52 53 -155 213
-79 122 -147 229 -152 237 -4 9 -117 185 -251 391 -223 344 -242 377 -230 395
8 11 14 31 14 45 0 20 14 34 68 70 37 25 69 48 72 51 3 3 211 149 462 324 252
175 456 320 454 323 -4 3 -778 -532 -997 -688 -65 -47 -65 -47 -88 -29 -25 20
-76 25 -86 9 -11 -17 -29 -11 -81 28 -28 20 -249 183 -492 361 l-442 325 6 37
c5 32 2 42 -19 63 -33 33 -71 33 -102 1z m590 -463 c478 -351 513 -378 504
-387 -3 -2 -50 8 -105 24 -54 16 -238 69 -409 119 -170 49 -424 123 -562 163
-139 40 -253 76 -253 79 0 3 56 82 125 175 109 148 129 170 150 167 13 -2 32
1 42 7 10 5 22 7 28 3 5 -3 222 -161 480 -350z m-1555 192 c217 -63 460 -133
540 -156 80 -23 148 -44 153 -48 4 -3 -43 -75 -105 -160 l-113 -153 -61 0 -60
0 -380 308 c-208 169 -386 315 -394 323 -13 13 -13 14 5 8 11 -4 197 -59 415
-122z m-36 -214 c328 -268 393 -324 389 -341 -3 -12 -11 -22 -17 -24 -6 -2
-162 -6 -347 -9 l-336 -5 -11 24 c-13 28 -49 40 -88 31 -25 -7 -56 -59 -48
-81 4 -8 -187 -95 -357 -163 -5 -2 -11 8 -15 23 -6 23 38 138 129 340 5 11 55
128 111 260 l102 240 37 6 c20 3 40 9 44 12 3 4 8 7 10 7 2 0 181 -144 397
-320z m-1370 -123 c409 -403 418 -413 406 -438 -10 -22 -9 -32 5 -59 16 -31
16 -33 -2 -50 -10 -10 -179 -149 -377 -308 -350 -284 -359 -289 -384 -276 -14
7 -36 11 -47 8 -18 -4 -57 33 -226 216 -202 219 -204 221 -201 261 3 28 -1 46
-14 60 -21 23 -42 -42 180 555 91 244 166 429 172 427 6 -2 22 1 35 6 13 5 26
10 29 10 3 0 193 -185 424 -412z m1746 -265 c0 -4 -12 -12 -27 -18 -16 -6
-284 -122 -596 -259 -312 -136 -570 -245 -574 -242 -3 4 0 15 8 24 12 16 12
17 -2 6 -12 -10 -22 -10 -47 -1 -27 11 -35 10 -59 -8 -18 -14 -29 -32 -31 -53
-3 -25 -11 -35 -40 -50 -91 -45 -694 -303 -698 -298 -3 3 166 144 375 314 280
226 390 309 414 313 43 7 61 19 78 54 12 25 40 40 193 104 139 58 180 72 186
61 5 -7 7 -16 5 -19 -2 -3 16 -6 39 -8 47 -3 86 24 86 58 0 18 9 20 158 23
369 7 532 7 532 -1z m-55 -51 c-6 -4 -176 -134 -380 -286 -203 -153 -461 -348
-573 -433 -112 -85 -206 -151 -210 -147 -4 3 -8 68 -10 145 -4 130 -3 139 17
159 19 19 25 38 22 66 0 6 45 30 102 54 56 25 133 58 171 75 259 116 853 374
861 375 5 1 5 -2 0 -8z m-2370 -547 c266 -290 249 -268 229 -299 -14 -22 -16
-33 -7 -55 10 -26 5 -35 -81 -145 l-91 -117 -18 58 c-47 153 -207 711 -207
722 0 7 3 12 8 11 4 0 79 -79 167 -175z m1108 -11 c4 -4 -5 -20 -20 -37 l-28
-31 30 26 c23 21 37 26 62 22 l32 -5 3 -153 3 -153 -499 -376 c-275 -207 -501
-375 -503 -373 -12 12 -133 460 -127 470 5 6 46 60 92 119 74 94 88 107 108
102 13 -4 40 -3 59 0 31 6 36 11 41 44 l6 38 356 156 c197 86 362 157 368 157
6 1 14 -2 17 -6z m95 -915 c7 -310 15 -590 18 -623 5 -59 4 -61 -27 -84 l-32
-24 -386 67 c-212 36 -389 66 -393 66 -5 0 -8 8 -8 18 0 29 -28 60 -60 67 -16
3 -31 14 -34 23 -73 251 -87 305 -80 312 43 41 412 309 421 306 7 -3 10 0 8 7
-4 10 538 426 556 427 3 0 11 -253 17 -562z m-1088 39 c35 -119 61 -219 59
-220 -2 -2 -25 -19 -51 -40 -48 -38 -65 -46 -52 -24 5 8 3 8 -9 -2 -9 -7 -14
-18 -10 -24 4 -7 0 -7 -13 -1 -10 5 -39 8 -64 8 -45 -1 -46 0 -108 77 -57 69
-62 80 -52 100 7 12 9 35 6 51 -5 26 7 46 107 173 65 84 114 139 118 132 4 -7
35 -110 69 -230z m74 -254 c3 -10 23 -80 46 -156 l41 -138 -26 -30 c-28 -35
-31 -56 -11 -85 13 -18 11 -25 -26 -73 -22 -29 -44 -49 -48 -44 -11 11 -140
324 -140 338 0 7 7 18 16 26 10 8 14 26 13 50 -3 36 0 41 56 83 68 51 72 53
79 29z m604 -465 c318 -54 373 -66 378 -81 3 -11 -2 -28 -12 -40 -17 -21 -17
-21 0 -6 13 12 30 15 60 12 41 -5 44 -3 54 24 l10 30 193 26 c284 39 309 41
309 29 0 -7 11 -19 25 -28 20 -13 31 -14 49 -6 21 9 46 -15 339 -313 263 -268
314 -325 302 -335 -11 -9 -857 -205 -1732 -401 l-103 -23 -22 21 c-13 12 -32
23 -42 25 -15 2 -59 98 -202 439 l-183 436 37 106 c33 95 40 107 60 107 13 0
33 11 45 25 14 16 29 24 42 21 11 -2 188 -33 393 -68z m-520 10 c-3 -7 -18
-51 -33 -98 l-28 -84 -20 40 -20 41 43 57 c39 51 69 74 58 44z m-86 -159 l18
-42 -80 -235 c-45 -130 -83 -238 -85 -240 -5 -5 -135 106 -135 115 0 2 5 13
11 25 8 14 7 28 -1 49 -12 28 -9 34 115 199 71 94 131 170 134 170 3 0 14 -19
23 -41z m133 -318 c86 -207 96 -237 85 -255 -12 -19 -12 -20 3 -7 15 11 18 10
27 -13 5 -14 37 -92 71 -172 61 -145 61 -146 42 -165 -19 -20 -21 -19 -154 97
-74 64 -136 118 -138 120 -2 2 2 12 10 21 13 16 12 17 -3 4 -20 -15 -36 -4
-157 106 l-54 49 78 233 c42 128 81 229 85 224 4 -4 51 -114 105 -242z m2019
-720 c-165 -387 -181 -420 -206 -425 -15 -3 -29 -14 -33 -26 -3 -11 -10 -20
-14 -20 -4 0 -90 29 -192 64 -101 36 -407 142 -679 236 -601 207 -552 188
-548 213 3 19 81 39 913 228 l910 206 13 -28 c14 -27 6 -47 -164 -448z m-1293
-124 c211 -74 530 -185 709 -247 232 -80 336 -121 360 -141 l33 -28 -105 -348
-105 -348 -31 -6 c-31 -6 -48 10 -642 611 -525 532 -627 640 -607 640 2 0 177
-60 388 -133z m2424 -1122 c-11 -5 -295 -77 -763 -195 l-323 -81 -26 21 c-31
24 -51 25 -81 4 -21 -14 -29 -12 -157 56 -74 39 -135 76 -135 81 0 6 5 19 10
30 9 16 22 19 93 20 45 0 350 15 677 33 575 32 726 39 705 31z m97 -25 c8 0
17 -2 20 -5 2 -3 -21 -101 -52 -219 -52 -198 -59 -217 -90 -246 l-34 -32 -451
77 c-247 42 -478 81 -511 87 -61 11 -62 12 -61 43 l1 33 545 137 c301 76 555
141 566 145 12 5 26 2 36 -6 8 -8 22 -14 31 -14z m-1312 -330 c6 -11 22 -23
35 -26 15 -4 27 -15 30 -28 2 -11 16 -145 30 -296 14 -151 33 -348 42 -437
l16 -162 -24 -20 c-13 -11 -27 -20 -31 -21 -6 0 -1027 665 -1040 678 -6 6 896
329 924 331 4 1 12 -8 18 -19z m575 -85 c204 -35 418 -72 478 -81 88 -15 107
-22 109 -36 0 -10 1 -22 2 -27 1 -5 -208 -180 -464 -389 -367 -301 -466 -377
-475 -367 -5 8 -21 18 -35 23 l-25 10 -38 388 c-56 582 -53 525 -31 541 23 17
-1 20 479 -62z m-1757 -85 c105 -69 192 -128 192 -131 0 -6 -663 -239 -668
-234 -2 1 39 108 90 236 l94 234 34 3 c19 2 39 8 45 13 12 12 -8 23 213 -121z
m-559 -534 c-30 -75 -57 -136 -60 -136 -3 0 -53 22 -110 49 -101 48 -104 50
-104 82 l0 33 160 56 c88 31 162 55 164 54 2 -2 -21 -64 -50 -138z m-170 -100
l108 -55 -66 -165 c-37 -91 -69 -168 -72 -170 -2 -3 -30 88 -61 202 -53 194
-56 207 -40 224 9 9 18 17 20 17 1 1 51 -23 111 -53z m959 -463 c6 -3 12 -19
12 -37 0 -30 -10 -37 -407 -276 -224 -135 -411 -245 -416 -245 -6 0 -47 134
-92 298 l-82 299 58 146 c31 81 64 164 73 184 l16 37 412 -201 c227 -110 419
-202 426 -205z m-908 -287 c60 -214 76 -284 67 -292 -18 -17 -446 -274 -456
-274 -5 0 -14 7 -21 15 -10 12 18 91 156 436 93 231 170 415 172 409 3 -7 40
-139 82 -294z m1510 -2105 l0 -478 -25 -11 c-37 -17 -50 -59 -31 -99 8 -17 23
-34 34 -37 17 -6 20 -21 25 -158 4 -83 7 -211 7 -283 l0 -133 -26 -5 c-23 -4
-54 28 -309 311 -266 296 -282 317 -269 336 18 27 18 52 -2 85 -16 26 -14 28
276 493 207 331 296 465 306 461 12 -4 14 -80 14 -482z m-716 -573 c-1 -9 6
-15 14 -14 14 1 21 -52 48 -364 18 -201 34 -384 37 -407 4 -38 2 -43 -27 -58
-30 -16 -35 -15 -256 55 -124 40 -238 75 -255 80 -23 6 -584 179 -753 232 -27
8 -33 14 -30 35 3 23 39 37 553 224 303 110 573 208 600 219 55 21 71 20 69
-2z"/>
<path d="M521 11424 c0 -11 3 -14 6 -6 3 7 2 16 -1 19 -3 4 -6 -2 -5 -13z"/>
<path d="M551 10984 c0 -11 3 -14 6 -6 3 7 2 16 -1 19 -3 4 -6 -2 -5 -13z"/>
<path d="M571 10714 c0 -11 3 -14 6 -6 3 7 2 16 -1 19 -3 4 -6 -2 -5 -13z"/>
<path d="M601 10274 c0 -11 3 -14 6 -6 3 7 2 16 -1 19 -3 4 -6 -2 -5 -13z"/>
<path d="M1855 10708 l-40 -43 43 40 c23 21 42 40 42 42 0 8 -9 0 -45 -39z"/>
<path d="M1749 10593 l-34 -38 38 34 c20 19 37 36 37 38 0 8 -8 0 -41 -34z"/>
<path d="M1645 10478 l-40 -43 43 40 c23 21 42 40 42 42 0 8 -9 0 -45 -39z"/>
<path d="M1319 10123 l-34 -38 38 34 c20 19 37 36 37 38 0 8 -8 0 -41 -34z"/>
<path d="M1209 10003 l-34 -38 38 34 c34 33 42 41 34 41 -2 0 -19 -17 -38 -37z"/>
<path d="M1105 9888 l-40 -43 43 40 c39 36 47 45 39 45 -2 0 -21 -19 -42 -42z"/>
<path d="M999 9773 l-34 -38 38 34 c20 19 37 36 37 38 0 8 -8 0 -41 -34z"/>
<path d="M894 9658 l-29 -33 33 29 c17 17 32 31 32 33 0 8 -8 1 -36 -29z"/>
<path d="M785 9538 l-40 -43 43 40 c39 36 47 45 39 45 -2 0 -21 -19 -42 -42z"/>
<path d="M675 9418 l-40 -43 43 40 c39 36 47 45 39 45 -2 0 -21 -19 -42 -42z"/>
<path d="M569 9303 l-34 -38 38 34 c20 19 37 36 37 38 0 8 -8 0 -41 -34z"/>
<path d="M449 9173 l-24 -28 28 24 c15 14 27 26 27 28 0 8 -8 1 -31 -24z"/>
<path d="M1434 8508 l-19 -23 23 19 c21 18 27 26 19 26 -2 0 -12 -10 -23 -22z"/>
<path d="M1384 8468 l-19 -23 23 19 c21 18 27 26 19 26 -2 0 -12 -10 -23 -22z"/>
<path d="M1329 8423 c-13 -16 -12 -17 4 -4 16 13 21 21 13 21 -2 0 -10 -8 -17
-17z"/>
<path d="M1279 8383 c-13 -16 -12 -17 4 -4 9 7 17 15 17 17 0 8 -8 3 -21 -13z"/>
<path d="M1229 8343 c-13 -16 -12 -17 4 -4 16 13 21 21 13 21 -2 0 -10 -8 -17
-17z"/>
<path d="M1179 8303 c-13 -16 -12 -17 4 -4 16 13 21 21 13 21 -2 0 -10 -8 -17
-17z"/>
<path d="M1129 8263 c-13 -16 -12 -17 4 -4 16 13 21 21 13 21 -2 0 -10 -8 -17
-17z"/>
<path d="M1079 8223 c-13 -16 -12 -17 4 -4 16 13 21 21 13 21 -2 0 -10 -8 -17
-17z"/>
<path d="M1029 8183 c-13 -16 -12 -17 4 -4 16 13 21 21 13 21 -2 0 -10 -8 -17
-17z"/>
<path d="M979 8143 c-13 -16 -12 -17 4 -4 16 13 21 21 13 21 -2 0 -10 -8 -17
-17z"/>
<path d="M929 8103 c-13 -16 -12 -17 4 -4 16 13 21 21 13 21 -2 0 -10 -8 -17
-17z"/>
<path d="M879 8063 c-13 -16 -12 -17 4 -4 16 13 21 21 13 21 -2 0 -10 -8 -17
-17z"/>
<path d="M829 8023 c-13 -16 -12 -17 4 -4 16 13 21 21 13 21 -2 0 -10 -8 -17
-17z"/>
<path d="M779 7983 c-13 -16 -12 -17 4 -4 16 13 21 21 13 21 -2 0 -10 -8 -17
-17z"/>
<path d="M679 7903 c-13 -16 -12 -17 4 -4 16 13 21 21 13 21 -2 0 -10 -8 -17
-17z"/>
<path d="M629 7863 c-13 -16 -12 -17 4 -4 16 13 21 21 13 21 -2 0 -10 -8 -17
-17z"/>
<path d="M11115 11579 c3 -29 14 -148 24 -264 16 -175 17 -211 5 -218 -18 -10
-41 -34 -46 -48 -2 -7 -80 13 -213 54 -369 115 -896 278 -1033 320 -128 39
-134 42 -150 76 -30 64 -111 69 -137 9 -15 -38 -7 -65 28 -91 30 -23 67 -17
97 15 18 20 23 20 62 9 45 -13 1072 -330 1238 -382 83 -26 97 -34 108 -59 7
-16 26 -35 42 -42 24 -10 31 -21 35 -53 7 -53 65 -714 65 -741 0 -15 -8 -23
-26 -27 -23 -4 -54 28 -309 311 -265 296 -282 317 -269 336 26 38 13 80 -33
104 -12 7 -29 12 -38 12 -26 0 -65 -46 -65 -78 0 -27 -33 -54 -393 -324 -358
-269 -395 -294 -412 -282 -10 8 -30 14 -45 14 -24 0 -35 22 -208 422 l-183
421 21 22 c11 12 20 34 20 49 0 29 -39 76 -64 76 -43 0 -86 -43 -86 -86 0 -23
47 -64 73 -64 20 0 29 -10 47 -52 12 -29 95 -219 183 -422 158 -364 159 -369
143 -397 -22 -38 -20 -66 9 -94 30 -31 64 -32 99 -4 22 18 27 28 24 57 l-3 37
355 267 c467 353 426 325 450 303 19 -17 20 -31 20 -298 l0 -281 -31 -26 c-43
-36 -43 -74 2 -114 l34 -30 3 -473 c1 -260 -1 -473 -6 -473 -24 0 -52 -43 -52
-80 0 -45 26 -70 72 -70 57 0 91 78 53 120 -14 16 10 58 276 484 276 442 293
466 321 466 36 0 78 40 78 73 0 29 -54 7 500 207 245 89 505 183 579 210 l134
49 17 -21 c16 -21 5 -45 -392 -847 -225 -454 -411 -828 -414 -830 -2 -3 -10 1
-16 7 -34 34 -108 -12 -108 -67 0 -44 35 -73 83 -69 33 3 38 1 44 -22 3 -14
63 -231 133 -483 l127 -459 -38 -23 c-21 -14 -209 -128 -417 -254 -370 -223
-381 -229 -398 -210 -38 42 -124 3 -124 -56 0 -31 41 -75 71 -75 11 0 33 7 48
16 26 15 32 13 321 -126 162 -79 354 -171 427 -205 l132 -63 -60 -149 -59
-148 -351 -122 -351 -122 -529 346 c-383 250 -529 350 -529 364 0 60 -57 101
-107 77 -56 -27 -57 -109 0 -133 l32 -13 38 -389 c57 -579 54 -526 23 -546
-14 -10 -26 -24 -26 -32 0 -8 -3 -15 -6 -15 -8 0 -966 176 -1009 185 -16 3
-20 12 -20 44 l1 40 462 377 c254 208 460 379 458 382 -3 2 -214 -167 -470
-376 -385 -315 -467 -378 -477 -366 -20 24 -75 17 -98 -12 -28 -36 -26 -70 5
-101 l26 -26 -33 -219 c-30 -198 -35 -220 -56 -233 -25 -17 -48 -11 -1208 297
-247 65 -463 122 -480 126 -16 5 -30 13 -30 19 0 7 301 215 669 462 548 369
672 449 687 441 30 -16 59 -11 84 15 32 31 32 69 0 100 -31 32 -69 32 -101 0
-20 -20 -25 -34 -22 -64 l3 -39 -663 -447 c-614 -414 -665 -446 -681 -431 -51
46 -131 16 -131 -48 0 -73 88 -103 133 -45 l24 31 804 -211 c442 -116 820
-215 840 -221 28 -8 38 -16 42 -38 7 -37 46 -58 76 -42 12 6 26 21 30 34 9 22
15 22 248 34 131 6 471 23 756 38 l518 27 28 -33 27 -33 -108 -355 c-79 -260
-112 -358 -127 -368 -11 -8 -21 -25 -23 -39 -3 -21 -91 -75 -662 -399 -640
-363 -660 -374 -683 -359 -20 13 -28 14 -48 3 -33 -18 -40 -45 -21 -75 11 -17
26 -25 45 -25 32 0 47 14 53 49 2 20 108 83 661 397 587 334 687 385 687 356
0 -4 -80 -194 -177 -424 -172 -405 -179 -418 -205 -418 -29 0 -48 -23 -48 -58
0 -26 35 -56 58 -50 15 4 94 -69 342 -317 202 -202 320 -327 315 -334 -14 -23
4 -59 36 -70 27 -9 33 -8 57 16 25 25 41 29 272 60 l244 33 24 -23 c26 -26 25
-12 48 -983 l7 -302 -259 -194 c-142 -107 -419 -315 -614 -462 -288 -218 -357
-266 -370 -257 -31 23 -60 30 -83 22 -39 -15 -50 -37 -44 -84 6 -41 4 -46
-109 -200 -64 -86 -121 -157 -127 -157 -7 0 -310 86 -674 192 -620 180 -663
194 -663 214 0 33 -48 67 -85 61 -29 -4 -33 0 -145 176 -63 99 -151 235 -195
303 -44 68 -101 156 -127 196 -25 40 -106 165 -178 278 -73 113 -143 221 -156
241 l-22 36 115 164 c130 185 146 204 165 196 8 -3 203 -284 433 -626 230
-341 420 -619 422 -617 2 2 -186 284 -417 626 -400 593 -420 625 -410 651 9
20 9 33 1 47 -23 43 -85 39 -102 -6 -8 -21 -6 -31 11 -54 l20 -27 -111 -158
c-61 -87 -117 -164 -124 -171 -10 -11 -64 67 -281 404 -148 230 -270 420 -272
424 -1 3 27 17 63 29 36 13 64 25 62 28 -3 2 -33 -7 -69 -20 l-64 -25 -259
401 c-252 391 -258 401 -246 432 17 49 13 74 -18 106 -45 45 -107 34 -135 -24
-13 -27 -13 -35 0 -65 8 -19 14 -36 14 -37 0 -2 16 -9 35 -15 24 -8 40 -8 54
0 18 9 24 6 44 -27 14 -21 129 -200 256 -397 128 -198 233 -364 234 -369 1 -5
-28 -21 -66 -35 -37 -14 -66 -27 -63 -29 2 -2 34 8 72 22 37 14 71 22 75 18 4
-5 123 -188 264 -408 142 -219 263 -408 271 -420 12 -18 -6 -47 -213 -340
-125 -176 -350 -495 -501 -710 -151 -214 -275 -390 -276 -391 -1 0 -21 1 -46
4 l-45 4 -220 391 c-121 215 -238 423 -260 463 -110 199 -227 404 -231 404 -7
0 -18 20 449 -812 l257 -456 -17 -31 c-16 -28 -17 -33 -3 -58 9 -15 27 -33 40
-40 l25 -12 5 -263 6 -263 2 265 c2 264 2 265 24 275 13 6 28 21 34 34 7 13
18 28 26 32 10 7 10 9 -2 9 -8 0 -20 11 -26 24 -12 26 -46 -23 831 1216 17 25
57 82 89 127 32 46 61 85 66 88 7 4 275 -399 303 -454 4 -9 117 -185 251 -391
223 -344 242 -377 230 -395 -8 -11 -14 -31 -14 -45 0 -20 -14 -34 -67 -70 -38
-25 -70 -48 -73 -51 -3 -3 -211 -149 -462 -324 -252 -175 -456 -321 -454 -323
4 -3 1009 692 1046 724 12 10 19 9 39 -7 25 -20 76 -26 86 -9 11 17 29 11 81
-28 28 -20 249 -183 492 -361 l442 -325 -6 -37 c-5 -32 -2 -42 19 -63 33 -33
71 -33 102 -1 28 28 32 61 10 92 -16 23 -28 5 240 371 5 7 1128 -324 1130
-333 2 -5 6 -22 9 -37 9 -40 58 -64 97 -47 51 20 63 68 30 111 l-19 24 176
412 177 412 33 -6 c19 -4 38 -1 47 6 13 10 82 -54 435 -406 231 -230 417 -420
413 -423 -17 -13 -13 -58 7 -84 16 -20 30 -27 56 -27 64 0 93 59 58 119 -15
26 -11 39 162 504 174 467 179 477 205 477 36 0 68 28 75 67 5 26 1 37 -19 57
-16 16 -37 26 -55 26 l-28 0 -113 389 c-63 214 -112 393 -110 398 2 5 54 73
114 151 92 118 113 140 130 134 38 -12 78 -5 97 18 24 29 23 61 -3 94 -18 23
-28 27 -62 24 -40 -2 -42 -1 -105 75 -58 70 -63 80 -54 105 17 50 -17 101 -68
102 -24 0 -31 14 -98 175 -40 96 -72 178 -72 184 0 5 58 85 130 179 l129 170
38 -5 c75 -9 113 75 58 127 -20 18 -31 22 -61 17 -40 -7 -43 -5 -128 70 l-48
43 62 180 63 180 33 0 c93 0 100 133 7 144 -37 5 -70 -21 -78 -62 -4 -15 -11
-36 -17 -47 -10 -17 -9 -18 4 -7 12 10 18 9 28 -3 10 -12 1 -46 -44 -182 -31
-92 -60 -173 -64 -180 -5 -8 -85 56 -242 192 -208 180 -235 207 -232 230 5 36
-22 73 -60 83 -31 8 -31 8 -167 408 -135 399 -135 400 -116 420 11 12 25 28
30 36 8 12 78 22 305 47 162 17 298 31 303 31 4 0 7 -10 7 -23 0 -12 7 -32 15
-43 8 -12 13 -23 10 -25 -2 -2 11 -4 29 -3 40 1 75 20 84 45 7 17 20 10 129
-70 137 -101 173 -126 173 -118 0 3 -67 55 -150 116 -82 61 -150 117 -150 124
0 20 -43 57 -67 57 -12 0 -34 -10 -50 -23 -25 -21 -55 -26 -323 -55 -162 -18
-301 -32 -307 -32 -51 1 45 55 475 266 l487 241 22 -24 c31 -33 85 -32 112 3
24 30 26 43 10 78 -27 59 -115 53 -133 -10 -9 -29 -41 -47 -504 -278 -273
-136 -498 -243 -501 -238 -12 17 -50 32 -68 25 -59 -20 -81 -85 -43 -123 19
-19 26 -22 59 -24 20 -1 294 -808 277 -818 -6 -4 -194 179 -475 465 -256 260
-533 541 -615 624 -117 119 -147 156 -138 165 22 22 14 75 -14 97 -32 25 -61
27 -91 6 -20 -14 -29 -11 -150 63 -143 88 -161 112 -101 136 59 25 903 317
918 318 8 1 104 -57 213 -128 161 -105 197 -133 193 -148 -14 -55 25 -103 82
-98 31 3 62 29 62 53 0 9 6 20 13 22 10 4 10 6 0 6 -7 1 -13 6 -13 13 0 6 -6
19 -14 27 -12 14 -2 47 84 261 l98 245 173 61 c160 56 176 60 196 46 14 -9 36
-12 55 -9 29 4 40 -1 88 -47 l55 -51 -52 55 c-40 42 -50 59 -43 70 5 8 10 29
10 47 0 34 -37 73 -71 73 -20 0 -17 -8 -93 270 l-46 165 172 432 c141 355 176
433 191 433 10 0 32 14 49 30 24 25 29 36 23 58 -8 31 -33 62 -50 62 -16 0
-25 112 -25 312 0 120 3 158 13 158 9 0 9 2 0 8 -9 6 -14 128 -19 468 -7 441
-6 461 11 468 22 8 14 16 144 -146 56 -71 104 -128 108 -128 7 0 12 -7 -116
153 -97 122 -102 129 -93 160 10 35 3 66 -19 84 -51 42 -119 10 -119 -57 0
-21 5 -42 11 -46 7 -4 -4 -22 -28 -48 l-38 -41 41 38 c36 34 45 37 63 28 20
-11 21 -18 21 -214 0 -111 3 -426 7 -699 4 -374 3 -498 -5 -498 -24 0 -52 -40
-52 -74 0 -34 -2 -35 -225 -170 -124 -75 -229 -136 -233 -136 -4 0 -67 217
-140 483 -116 421 -132 487 -121 509 8 18 8 35 2 55 -9 25 28 105 404 856 385
771 415 827 438 827 34 0 75 42 75 75 0 16 -12 38 -30 57 l-30 30 40 391 c22
216 42 402 44 415 2 12 0 22 -3 22 -6 0 -92 -787 -91 -827 0 -7 -8 -13 -17
-13 -9 0 -25 -7 -34 -16 -19 -17 -56 -7 -1085 314 l-212 66 0 34 c0 35 -30 71
-59 72 -7 0 -13 6 -13 13 -2 64 -49 509 -54 514 -4 4 -4 -18 -1 -48z m246
-635 c63 -19 170 -53 239 -74 69 -22 287 -89 485 -150 198 -61 375 -116 393
-121 27 -9 33 -15 30 -36 -3 -23 -42 -38 -607 -244 -332 -120 -608 -216 -613
-213 -5 3 -7 12 -4 19 2 7 -2 12 -12 11 -14 -1 -20 46 -48 364 -18 201 -34
383 -37 406 -4 36 -1 43 22 57 14 9 29 17 32 17 3 0 57 -16 120 -36z m-438
-534 c239 -266 254 -285 241 -304 -18 -27 -18 -52 2 -85 16 -26 14 -28 -276
-493 -207 -331 -296 -465 -306 -461 -12 4 -14 80 -14 482 l0 478 25 11 c37 17
50 59 31 99 -8 17 -23 34 -34 37 -17 6 -20 21 -25 158 -4 83 -7 211 -7 284 0
130 0 133 23 136 29 5 36 -2 340 -342z m1567 -2415 c10 -12 -18 -90 -155 -432
-92 -230 -168 -419 -169 -421 -3 -3 -158 557 -160 577 -1 13 436 289 460 290
6 1 17 -6 24 -14z m-415 -579 l82 -298 -69 -175 c-38 -97 -71 -179 -73 -184
-3 -4 -196 85 -430 199 -424 205 -425 205 -425 236 0 30 13 39 408 278 224
135 411 245 416 244 5 -1 46 -136 91 -300z m149 -541 c54 -196 55 -200 36
-217 -19 -18 -23 -17 -129 36 l-109 55 62 153 c34 84 66 162 70 173 5 11 10
16 12 10 2 -5 28 -100 58 -210z m-1587 -326 c279 -183 513 -337 520 -343 9 -8
-104 -51 -454 -173 l-466 -163 -23 25 c-13 14 -30 25 -38 25 -9 0 -18 10 -20
23 -3 12 -24 219 -47 459 l-42 438 24 19 c13 11 27 20 31 21 3 0 235 -149 515
-331z m1494 132 c102 -47 104 -49 104 -82 l0 -34 -160 -56 c-88 -30 -162 -54
-164 -53 -5 4 103 274 110 274 3 0 53 -22 110 -49z m-343 -492 l-94 -234 -34
-3 c-19 -2 -40 -8 -46 -13 -7 -5 -81 37 -207 119 -108 70 -197 130 -197 133 0
6 663 239 668 234 2 -1 -39 -108 -90 -236z m-2453 -205 c138 -25 358 -65 489
-89 132 -25 243 -45 247 -45 4 0 14 -12 21 -27 7 -15 25 -34 41 -43 25 -14 30
-13 58 3 l31 17 134 -81 c113 -68 133 -83 125 -97 -9 -15 -88 -21 -703 -54
-829 -44 -815 -44 -847 -18 l-24 20 34 220 c28 179 37 220 50 220 8 0 24 6 35
14 10 8 28 13 39 10 11 -2 133 -25 270 -50z m2485 -1693 c0 -7 -6 -11 -12 -8
-7 2 -197 68 -423 147 -225 78 -541 187 -700 242 -204 71 -301 109 -325 129
l-33 28 105 348 c104 343 106 348 134 354 27 6 61 -26 641 -610 337 -339 612
-622 613 -630z m-1353 445 c37 -14 237 -83 443 -155 608 -210 864 -299 883
-306 11 -5 17 -16 15 -28 -3 -19 -77 -38 -888 -222 -487 -111 -896 -204 -910
-208 -21 -5 -28 -2 -39 23 -12 29 -5 49 166 449 164 387 180 420 205 425 15 3
29 14 33 26 8 25 9 25 92 -4z m1367 -545 c10 -11 28 -21 39 -23 17 -2 51 -76
204 -439 l182 -437 -37 -103 c-33 -93 -40 -103 -67 -111 -16 -4 -36 -16 -45
-27 -15 -20 -19 -20 -408 47 -336 57 -393 70 -398 85 -3 11 2 28 13 40 l18 22
-22 -18 c-15 -14 -26 -16 -38 -9 -28 15 -63 2 -73 -28 -11 -31 3 -28 -327 -71
l-171 -22 -26 26 c-29 29 -40 32 -67 18 -14 -8 -73 47 -334 314 -310 316 -317
324 -295 338 13 8 239 62 503 122 264 59 662 150 885 201 223 51 414 93 426
93 11 1 29 -8 38 -18z m251 -110 c61 -52 116 -100 124 -107 12 -11 12 -15 0
-31 -13 -16 -12 -17 3 -4 20 15 36 4 157 -106 l54 -49 -78 -233 c-42 -128 -81
-229 -85 -224 -4 4 -51 114 -105 242 -86 207 -96 237 -85 255 12 19 12 20 -3
7 -15 -11 -18 -10 -27 13 -5 14 -37 91 -71 171 -59 141 -61 147 -44 165 21 23
8 32 160 -99z m424 -369 c59 -54 63 -59 52 -81 -10 -18 -10 -29 -1 -52 12 -28
9 -34 -115 -199 -71 -94 -131 -170 -134 -170 -3 0 -14 19 -24 43 l-17 43 33
94 c19 52 55 159 81 238 26 78 51 142 54 142 4 0 36 -26 71 -58z m-249 -576
c-39 -51 -69 -74 -58 -43 3 6 18 50 33 97 l28 84 20 -40 20 -41 -43 -57z m124
-140 c36 -88 66 -165 66 -171 0 -7 -7 -18 -16 -26 -10 -8 -14 -26 -13 -51 3
-36 0 -40 -59 -84 -35 -26 -65 -44 -67 -42 -3 3 -26 73 -50 157 l-46 152 26
30 c28 35 31 56 11 85 -13 18 -11 25 26 73 22 29 44 49 48 44 4 -4 38 -80 74
-167z m-674 89 c206 -36 378 -65 383 -65 4 0 7 -8 7 -18 0 -29 28 -60 60 -67
16 -3 31 -14 34 -23 73 -250 87 -305 80 -312 -45 -43 -411 -310 -420 -306 -7
3 -11 0 -9 -7 3 -10 -524 -415 -553 -425 -4 -1 -15 278 -23 620 l-16 623 26
22 c14 12 33 22 41 23 8 0 184 -29 390 -65z m790 -399 c45 1 46 0 109 -78 53
-65 61 -81 51 -93 -8 -9 -10 -29 -7 -51 6 -34 0 -44 -106 -180 -66 -84 -114
-138 -118 -131 -11 21 -132 447 -128 450 2 2 23 18 46 36 24 18 47 30 52 27 5
-3 15 2 22 12 13 16 13 16 -6 2 -19 -14 -19 -14 -6 3 9 12 20 15 30 10 9 -4
36 -7 61 -7z m-144 -330 c36 -124 62 -232 58 -239 -5 -6 -46 -60 -92 -119 -74
-94 -88 -107 -108 -102 -13 4 -40 3 -59 0 -31 -6 -36 -11 -41 -45 l-6 -38
-361 -157 c-198 -86 -367 -154 -375 -151 -12 4 -9 12 14 38 l29 32 -30 -26
c-23 -21 -37 -26 -62 -22 l-32 5 -3 153 -3 153 499 376 c275 207 501 375 503
373 2 -2 33 -106 69 -231z m200 -689 c53 -180 94 -333 92 -339 -3 -8 -184 181
-396 413 -23 26 -23 28 -6 54 14 22 16 33 7 55 -10 26 -5 35 81 145 l91 117
18 -58 c10 -33 61 -207 113 -387z m-1282 116 c10 -64 7 -263 -4 -263 -13 0
-40 -59 -34 -75 3 -6 -42 -30 -98 -54 -57 -24 -125 -54 -153 -67 -222 -101
-895 -390 -884 -380 8 8 244 186 524 397 281 211 537 404 570 431 33 26 63 47
66 48 4 0 9 -17 13 -37z m835 2 c-8 -9 -182 -150 -385 -315 -302 -245 -375
-300 -400 -300 -34 0 -74 -32 -74 -59 0 -25 -368 -181 -380 -160 -5 7 -7 16
-5 19 2 3 -16 6 -39 8 -46 3 -86 -24 -86 -57 0 -16 -18 -18 -232 -24 -318 -9
-458 -9 -458 2 0 5 8 11 18 13 9 3 277 119 595 258 318 139 581 250 584 246 3
-3 0 -14 -8 -23 -12 -16 -12 -17 2 -6 12 10 22 10 47 1 28 -11 35 -10 59 8 18
14 30 33 33 55 l5 34 355 156 c195 87 362 157 370 158 12 1 12 -1 -1 -14z m87
-29 c18 5 56 -32 225 -216 202 -219 204 -222 201 -261 -3 -28 1 -46 14 -60 21
-23 42 41 -180 -554 -137 -366 -164 -430 -181 -431 -11 0 -29 -3 -40 -7 -16
-5 -98 71 -438 406 -412 406 -419 412 -408 440 9 22 8 35 -5 59 -15 29 -15 32
3 48 10 10 179 149 377 308 350 283 359 289 384 276 15 -7 36 -11 48 -8z
m-940 -701 c6 -22 -40 -141 -129 -340 -5 -11 -55 -128 -111 -260 l-102 -240
-35 -5 c-19 -4 -40 -9 -46 -13 -8 -5 -166 118 -407 313 -328 267 -393 324
-389 341 3 12 11 22 17 24 6 2 162 6 347 8 l337 5 10 -24 c13 -27 50 -39 88
-30 25 7 56 59 48 81 -3 6 65 40 158 78 90 37 170 72 178 77 23 15 29 12 36
-15z m-2248 -370 c409 -119 651 -193 648 -200 -2 -6 -59 -86 -125 -177 -106
-144 -125 -165 -145 -161 -13 3 -33 0 -44 -6 -17 -9 -85 38 -512 352 -435 320
-541 404 -489 385 8 -2 308 -89 667 -193z m1408 -180 c209 -169 386 -314 394
-323 13 -13 13 -14 -5 -8 -11 4 -260 77 -555 163 -294 85 -541 158 -548 162
-12 7 -5 19 148 226 l67 90 60 -1 60 -1 379 -308z"/>
<path d="M12009 3783 c-13 -16 -12 -17 4 -4 9 7 17 15 17 17 0 8 -8 3 -21 -13z"/>
<path d="M11959 3743 c-13 -16 -12 -17 4 -4 16 13 21 21 13 21 -2 0 -10 -8
-17 -17z"/>
<path d="M11909 3703 c-13 -16 -12 -17 4 -4 16 13 21 21 13 21 -2 0 -10 -8
-17 -17z"/>
<path d="M11859 3663 c-13 -16 -12 -17 4 -4 16 13 21 21 13 21 -2 0 -10 -8
-17 -17z"/>
<path d="M11809 3623 c-13 -16 -12 -17 4 -4 9 7 17 15 17 17 0 8 -8 3 -21 -13z"/>
<path d="M11709 3543 c-13 -16 -12 -17 4 -4 16 13 21 21 13 21 -2 0 -10 -8
-17 -17z"/>
<path d="M11659 3503 c-13 -16 -12 -17 4 -4 9 7 17 15 17 17 0 8 -8 3 -21 -13z"/>
<path d="M11604 3458 l-19 -23 23 19 c21 18 27 26 19 26 -2 0 -12 -10 -23 -22z"/>
<path d="M11559 3423 c-13 -16 -12 -17 4 -4 16 13 21 21 13 21 -2 0 -10 -8
-17 -17z"/>
<path d="M11399 3293 c-13 -16 -12 -17 4 -4 16 13 21 21 13 21 -2 0 -10 -8
-17 -17z"/>
<path d="M11354 3258 l-19 -23 23 19 c21 18 27 26 19 26 -2 0 -12 -10 -23 -22z"/>
<path d="M12159 3903 c-13 -16 -12 -17 4 -4 9 7 17 15 17 17 0 8 -8 3 -21 -13z"/>
<path d="M12109 3863 c-13 -16 -12 -17 4 -4 16 13 21 21 13 21 -2 0 -10 -8
-17 -17z"/>
<path d="M12339 2593 l-24 -28 28 24 c15 14 27 26 27 28 0 8 -8 1 -31 -24z"/>
<path d="M12225 2468 l-40 -43 43 40 c23 21 42 40 42 42 0 8 -9 0 -45 -39z"/>
<path d="M12115 2348 l-40 -43 43 40 c39 36 47 45 39 45 -2 0 -21 -19 -42 -42z"/>
<path d="M12009 2233 l-34 -38 38 34 c34 33 42 41 34 41 -2 0 -19 -17 -38 -37z"/>
<path d="M11894 2108 l-29 -33 33 29 c30 28 37 36 29 36 -2 0 -16 -15 -33 -32z"/>
<path d="M11795 1998 l-40 -43 43 40 c23 21 42 40 42 42 0 8 -9 0 -45 -39z"/>
<path d="M11685 1878 l-40 -43 43 40 c23 21 42 40 42 42 0 8 -9 0 -45 -39z"/>
<path d="M11579 1763 l-34 -38 38 34 c34 33 42 41 34 41 -2 0 -19 -17 -38 -37z"/>
<path d="M11469 1643 l-34 -38 38 34 c34 33 42 41 34 41 -2 0 -19 -17 -38 -37z"/>
<path d="M11145 1288 l-40 -43 43 40 c39 36 47 45 39 45 -2 0 -21 -19 -42 -42z"/>
<path d="M11045 1178 l-40 -43 43 40 c23 21 42 40 42 42 0 8 -9 0 -45 -39z"/>
<path d="M10935 1058 l-40 -43 43 40 c23 21 42 40 42 42 0 8 -9 0 -45 -39z"/>
<path d="M12191 1494 c0 -11 3 -14 6 -6 3 7 2 16 -1 19 -3 4 -6 -2 -5 -13z"/>
<path d="M12221 1054 c0 -11 3 -14 6 -6 3 7 2 16 -1 19 -3 4 -6 -2 -5 -13z"/>
<path d="M12241 784 c0 -11 3 -14 6 -6 3 7 2 16 -1 19 -3 4 -6 -2 -5 -13z"/>
<path d="M12271 344 c0 -11 3 -14 6 -6 3 7 2 16 -1 19 -3 4 -6 -2 -5 -13z"/>
<path d="M12350 11493 c-158 -85 -256 -131 -258 -124 -2 7 -13 21 -25 32 -64
59 -161 -42 -101 -106 39 -42 101 -30 123 23 10 24 47 47 204 130 312 165 343
182 327 181 -8 -1 -130 -62 -270 -136z"/>
<path d="M8550 10677 c-51 -26 -52 -105 0 -132 71 -37 144 55 90 113 -12 12
-25 22 -30 22 -4 0 -14 2 -22 5 -7 3 -24 -1 -38 -8z"/>
<path d="M4133 10554 c-21 -21 -24 -32 -19 -62 5 -35 -8 -57 -258 -437 -146
-220 -355 -538 -467 -708 -111 -169 -207 -307 -213 -306 -30 4 -46 -3 -56 -22
-28 -52 28 -106 76 -74 26 17 33 62 12 83 -8 8 41 90 202 334 117 178 326 495
464 705 187 285 255 381 266 376 43 -17 69 -15 94 10 35 35 35 79 0 106 -36
28 -70 26 -101 -5z"/>
<path d="M10264 10178 c-22 -10 -44 -47 -44 -72 0 -7 9 -25 21 -40 15 -19 30
-26 54 -26 69 0 99 77 50 125 -26 27 -47 30 -81 13z"/>
<path d="M2260 10080 c-22 -22 -25 -42 -10 -71 12 -22 68 -27 88 -7 18 18 14
63 -6 81 -25 22 -48 21 -72 -3z"/>
<path d="M7745 9985 c-30 -29 -32 -71 -6 -99 19 -21 18 -23 -123 -283 -182
-339 -161 -334 -304 -78 -57 102 -106 185 -109 185 -5 0 8 -23 135 -249 l70
-124 -20 -28 c-14 -18 -19 -35 -14 -52 5 -23 0 -26 -155 -82 -88 -32 -158 -59
-156 -61 2 -3 73 21 157 51 149 54 154 55 186 40 39 -18 39 -18 78 0 32 15 40
12 841 -288 766 -287 810 -305 810 -328 0 -22 -35 -36 -695 -271 -844 -301
-765 -275 -788 -255 -29 26 -77 22 -101 -9 -12 -15 -21 -38 -21 -51 0 -32 42
-73 75 -73 34 0 75 42 75 77 l0 28 737 262 c673 239 738 261 757 247 11 -8 28
-14 38 -14 25 0 65 40 72 73 9 37 -30 77 -76 77 l-33 1 -224 420 c-201 380
-222 423 -212 445 17 38 13 69 -11 91 -34 31 -64 34 -93 11 l-26 -20 -366 143
c-362 142 -367 144 -375 176 -16 62 -80 82 -123 38z m483 -221 c191 -75 353
-139 360 -141 6 -3 12 -16 12 -28 0 -13 3 -31 6 -40 9 -23 60 -46 86 -40 24 6
5 40 429 -756 45 -84 46 -86 28 -108 l-18 -22 -806 302 c-802 301 -805 302
-805 329 0 16 -7 41 -16 57 -15 28 -14 30 123 283 132 242 140 255 172 261 18
4 40 14 49 23 9 9 20 16 24 16 4 0 164 -61 356 -136z"/>
<path d="M9092 9497 c-25 -26 -27 -45 -11 -80 11 -24 47 -47 73 -47 7 0 25 11
40 25 30 28 34 69 10 103 -21 31 -83 31 -112 -1z"/>
<path d="M6287 9490 c-55 -43 -21 -130 50 -130 36 0 73 38 73 75 0 59 -75 92
-123 55z"/>
<path d="M12120 9203 l-135 -138 138 135 c127 125 142 140 134 140 -1 0 -63
-62 -137 -137z"/>
<path d="M6992 9093 c-24 -8 -41 -17 -39 -19 4 -5 97 26 97 32 0 6 -11 4 -58
-13z"/>
<path d="M6677 8978 c-136 -50 -246 -93 -244 -95 4 -3 497 174 506 182 11 12
-29 -2 -262 -87z"/>
<path d="M11795 8868 l-50 -53 53 50 c48 46 57 55 49 55 -1 0 -25 -24 -52 -52z"/>
<path d="M6212 8808 c-106 -39 -191 -73 -189 -75 4 -3 388 134 396 142 11 11
-25 0 -207 -67z"/>
<path d="M5842 8673 c-24 -8 -41 -17 -39 -19 4 -5 97 26 97 32 0 6 -11 4 -58
-13z"/>
<path d="M5582 8578 c-106 -39 -191 -73 -189 -75 4 -3 388 134 396 142 11 11
-25 0 -207 -67z"/>
<path d="M5330 8485 c-19 -7 -84 -31 -145 -53 -60 -22 -161 -58 -224 -81 -103
-37 -116 -40 -131 -26 -20 18 -61 20 -78 3 -21 -21 -14 -66 13 -84 34 -22 57
-15 77 25 17 33 27 38 275 128 141 51 259 96 262 98 8 8 -12 4 -49 -10z"/>
<path d="M3346 8368 c-30 -42 -9 -88 39 -88 52 0 74 65 33 94 -31 22 -54 20
-72 -6z"/>
<path d="M3892 8338 c-28 -28 3 -98 43 -98 20 0 55 36 55 56 0 33 -20 54 -53
54 -18 0 -38 -5 -45 -12z"/>
<path d="M7070 8220 c-28 -28 -26 -81 3 -108 59 -56 144 9 112 84 -20 48 -79
60 -115 24z"/>
<path d="M12551 7904 c0 -11 3 -14 6 -6 3 7 2 16 -1 19 -3 4 -6 -2 -5 -13z"/>
<path d="M529 7783 c-13 -16 -12 -17 4 -4 9 7 17 15 17 17 0 8 -8 3 -21 -13z"/>
<path d="M479 7743 c-13 -16 -12 -17 4 -4 16 13 21 21 13 21 -2 0 -10 -8 -17
-17z"/>
<path d="M429 7703 c-13 -16 -12 -17 4 -4 9 7 17 15 17 17 0 8 -8 3 -21 -13z"/>
<path d="M379 7663 c-13 -16 -12 -17 4 -4 9 7 17 15 17 17 0 8 -8 3 -21 -13z"/>
<path d="M10475 7655 c-30 -30 -32 -64 -4 -99 41 -53 129 -18 129 51 0 32 -42
73 -75 73 -14 0 -37 -11 -50 -25z"/>
<path d="M329 7623 c-13 -16 -12 -17 4 -4 9 7 17 15 17 17 0 8 -8 3 -21 -13z"/>
<path d="M9643 7619 c-25 -9 -53 -47 -53 -70 0 -9 9 -28 21 -43 40 -51 129
-23 129 42 0 55 -48 89 -97 71z"/>
<path d="M12581 7544 c0 -11 3 -14 6 -6 3 7 2 16 -1 19 -3 4 -6 -2 -5 -13z"/>
<path d="M12601 7324 c0 -11 3 -14 6 -6 3 7 2 16 -1 19 -3 4 -6 -2 -5 -13z"/>
<path d="M5162 7004 c-41 -29 -19 -94 33 -94 52 0 74 65 33 94 -12 9 -27 16
-33 16 -6 0 -21 -7 -33 -16z"/>
<path d="M12631 6964 c0 -11 3 -14 6 -6 3 7 2 16 -1 19 -3 4 -6 -2 -5 -13z"/>
<path d="M399 6393 c-13 -16 -12 -17 4 -4 9 7 17 15 17 17 0 8 -8 3 -21 -13z"/>
<path d="M12681 6384 c0 -11 3 -14 6 -6 3 7 2 16 -1 19 -3 4 -6 -2 -5 -13z"/>
<path d="M12598 6289 c21 -23 30 -39 23 -43 -18 -11 -13 -81 7 -99 50 -46 125
-14 125 53 0 49 -41 82 -85 69 -29 -8 -36 -5 -68 24 l-35 32 33 -36z"/>
<path d="M239 6183 c-13 -16 -12 -17 4 -4 16 13 21 21 13 21 -2 0 -10 -8 -17
-17z"/>
<path d="M209 6143 c-13 -16 -12 -17 4 -4 16 13 21 21 13 21 -2 0 -10 -8 -17
-17z"/>
<path d="M1212 6140 c0 -14 2 -19 5 -12 2 6 2 18 0 25 -3 6 -5 1 -5 -13z"/>
<path d="M6938 6003 c7 -3 16 -2 19 1 4 3 -2 6 -13 5 -11 0 -14 -3 -6 -6z"/>
<path d="M5848 5763 c7 -3 16 -2 19 1 4 3 -2 6 -13 5 -11 0 -14 -3 -6 -6z"/>
<path d="M75 5627 c-39 -33 -39 -82 0 -113 23 -18 33 -20 58 -13 28 8 36 5 72
-29 l40 -37 -37 40 c-28 30 -35 44 -28 55 16 24 11 76 -7 93 -33 29 -68 31
-98 4z"/>
<path d="M11582 5630 c0 -14 2 -19 5 -12 2 6 2 18 0 25 -3 6 -5 1 -5 -13z"/>
<path d="M12549 5583 c-13 -16 -12 -17 4 -4 9 7 17 15 17 17 0 8 -8 3 -21 -13z"/>
<path d="M111 5384 c0 -11 3 -14 6 -6 3 7 2 16 -1 19 -3 4 -6 -2 -5 -13z"/>
<path d="M12389 5373 c-13 -16 -12 -17 4 -4 9 7 17 15 17 17 0 8 -8 3 -21 -13z"/>
<path d="M7875 5325 c-48 -47 -16 -125 52 -125 32 0 73 42 73 75 0 14 -11 37
-25 50 -13 14 -36 25 -50 25 -14 0 -37 -11 -50 -25z"/>
<path d="M141 5024 c0 -11 3 -14 6 -6 3 7 2 16 -1 19 -3 4 -6 -2 -5 -13z"/>
<path d="M5933 4978 c-60 -64 0 -153 82 -122 8 4 22 19 30 35 38 73 -57 146
-112 87z"/>
<path d="M4205 4855 c-14 -13 -25 -36 -25 -50 0 -14 11 -37 25 -50 13 -14 36
-25 50 -25 14 0 37 11 50 25 14 13 25 36 25 50 0 14 -11 37 -25 50 -13 14 -36
25 -50 25 -14 0 -37 -11 -50 -25z"/>
<path d="M7566 4844 c-25 -24 -20 -61 10 -81 24 -15 29 -15 53 -2 49 28 32 99
-24 99 -13 0 -31 -7 -39 -16z"/>
<path d="M161 4804 c0 -11 3 -14 6 -6 3 7 2 16 -1 19 -3 4 -6 -2 -5 -13z"/>
<path d="M191 4444 c0 -11 3 -14 6 -6 3 7 2 16 -1 19 -3 4 -6 -2 -5 -13z"/>
<path d="M3080 4270 c-11 -11 -20 -33 -20 -49 0 -70 81 -100 127 -47 28 33 29
56 2 90 -26 33 -79 36 -109 6z"/>
<path d="M211 4224 c0 -11 3 -14 6 -6 3 7 2 16 -1 19 -3 4 -6 -2 -5 -13z"/>
<path d="M2222 4217 c-12 -13 -22 -36 -22 -51 0 -34 41 -76 75 -76 33 0 75 41
75 73 0 67 -83 102 -128 54z"/>
<path d="M12459 4143 c-13 -16 -12 -17 4 -4 9 7 17 15 17 17 0 8 -8 3 -21 -13z"/>
<path d="M12409 4103 c-13 -16 -12 -17 4 -4 16 13 21 21 13 21 -2 0 -10 -8
-17 -17z"/>
<path d="M12359 4063 c-13 -16 -12 -17 4 -4 9 7 17 15 17 17 0 8 -8 3 -21 -13z"/>
<path d="M12309 4023 c-13 -16 -12 -17 4 -4 16 13 21 21 13 21 -2 0 -10 -8
-17 -17z"/>
<path d="M12259 3983 c-13 -16 -12 -17 4 -4 9 7 17 15 17 17 0 8 -8 3 -21 -13z"/>
<path d="M241 3864 c0 -11 3 -14 6 -6 3 7 2 16 -1 19 -3 4 -6 -2 -5 -13z"/>
<path d="M5145 3815 c-15 -14 -25 -36 -25 -52 0 -27 -5 -30 -147 -81 -82 -28
-413 -146 -737 -261 -540 -193 -591 -209 -610 -196 -11 8 -28 15 -38 15 -25 0
-65 -40 -72 -73 -9 -37 30 -77 76 -77 l33 -1 224 -420 c201 -380 222 -423 212
-445 -17 -38 -13 -69 12 -91 33 -31 63 -34 93 -11 l25 21 367 -144 c360 -142
366 -145 374 -176 16 -62 80 -82 123 -38 30 29 32 71 6 99 -19 21 -18 23 123
283 182 339 161 334 304 78 57 -102 106 -185 109 -185 5 0 -31 66 -140 259
l-65 115 20 27 c14 19 19 35 14 53 -4 18 -2 26 6 26 13 1 -60 39 -75 40 -5 0
-23 -7 -41 -15 -32 -15 -39 -13 -841 288 -756 284 -810 305 -810 327 0 22 45
40 725 282 399 142 730 258 736 258 6 0 17 -7 24 -15 7 -8 27 -15 45 -15 39 0
75 37 75 77 0 32 -42 73 -75 73 -14 0 -37 -11 -50 -25z m-668 -976 l803 -302
0 -29 c0 -16 7 -40 16 -53 16 -25 13 -31 -122 -282 -132 -244 -141 -258 -172
-264 -18 -4 -41 -14 -51 -23 -10 -9 -21 -16 -25 -16 -4 0 -169 64 -366 142
-326 128 -360 143 -360 164 0 12 -3 30 -6 39 -9 23 -60 46 -86 40 -21 -5 -40
27 -249 418 -214 403 -224 425 -210 445 9 12 18 21 20 22 3 0 366 -136 808
-301z"/>
<path d="M5638 3666 c-28 -21 -38 -58 -23 -92 31 -74 135 -51 135 29 0 60 -67
98 -112 63z"/>
<path d="M7972 3527 c-6 -7 -15 -24 -20 -37 -8 -20 -29 -32 -106 -59 -54 -18
-95 -35 -93 -37 2 -2 48 12 102 31 88 32 99 34 115 20 20 -18 61 -20 78 -3 7
7 12 24 12 39 0 45 -62 77 -88 46z"/>
<path d="M8830 3510 c-38 -38 -18 -90 33 -90 39 0 57 15 57 47 0 26 -32 63
-55 63 -8 0 -24 -9 -35 -20z"/>
<path d="M9376 3474 c-34 -33 -4 -94 46 -94 19 0 48 36 48 62 0 24 -27 48 -55
48 -13 0 -31 -7 -39 -16z"/>
<path d="M7680 3373 c-25 -9 -40 -18 -34 -20 6 -2 31 5 55 16 53 24 41 26 -21
4z"/>
<path d="M7422 3278 c-106 -39 -191 -73 -189 -75 4 -3 388 134 396 142 11 11
-25 0 -207 -67z"/>
<path d="M7162 3183 c-24 -8 -41 -17 -39 -19 4 -5 97 26 97 32 0 6 -11 4 -58
-13z"/>
<path d="M7052 3143 c-24 -8 -41 -17 -39 -19 4 -5 97 26 97 32 0 6 -11 4 -58
-13z"/>
<path d="M6642 2993 c-24 -8 -41 -17 -39 -19 4 -5 97 26 97 32 0 6 -11 4 -58
-13z"/>
<path d="M6532 2953 c-24 -8 -41 -17 -39 -19 4 -5 97 26 97 32 0 6 -11 4 -58
-13z"/>
<path d="M995 2898 l-50 -53 53 50 c28 27 52 51 52 52 0 8 -9 -1 -55 -49z"/>
<path d="M6327 2878 c-75 -28 -136 -53 -134 -55 4 -4 278 94 286 102 10 11
-21 1 -152 -47z"/>
<path d="M9602 2824 c-24 -17 -30 -62 -10 -82 8 -8 -35 -81 -179 -299 -104
-158 -313 -476 -464 -705 -204 -311 -278 -416 -289 -411 -43 17 -69 15 -94
-10 -35 -35 -35 -79 0 -106 34 -27 64 -27 99 1 24 19 27 26 22 63 -6 40 0 49
258 440 145 220 354 538 465 706 179 272 204 307 227 307 44 0 68 50 41 84
-20 25 -51 30 -76 12z"/>
<path d="M6122 2803 c-24 -8 -41 -17 -39 -19 4 -5 97 26 97 32 0 6 -11 4 -58
-13z"/>
<path d="M6012 2763 c-24 -8 -41 -17 -39 -19 4 -5 97 26 97 32 0 6 -11 4 -58
-13z"/>
<path d="M5807 2688 c-75 -28 -136 -53 -134 -55 4 -4 278 94 286 102 10 11
-21 1 -152 -47z"/>
<path d="M680 2573 l-135 -138 138 135 c127 125 142 140 134 140 -1 0 -63 -62
-137 -137z"/>
<path d="M5547 2593 c-54 -20 -96 -37 -94 -39 4 -4 198 64 206 72 10 9 -19 1
-112 -33z"/>
<path d="M6411 2384 c-42 -53 -13 -118 52 -118 47 0 77 27 77 69 0 68 -88 102
-129 49z"/>
<path d="M3606 2375 c-30 -28 -34 -69 -10 -103 32 -45 134 -15 134 41 0 29
-22 65 -47 76 -35 16 -47 14 -77 -14z"/>
<path d="M10462 1768 c-18 -18 -14 -63 8 -83 43 -39 107 15 82 70 -9 19 -19
25 -45 25 -18 0 -38 -5 -45 -12z"/>
<path d="M2450 1708 c-11 -12 -20 -35 -20 -50 0 -31 39 -78 64 -78 28 0 64 22
75 47 16 34 14 47 -10 77 -27 34 -79 36 -109 4z"/>
<path d="M4200 1233 c-75 -28 -79 -115 -6 -143 83 -31 135 94 56 135 -16 8
-30 15 -32 14 -2 0 -10 -3 -18 -6z"/>
<path d="M739 490 c-9 -5 -22 -23 -28 -39 -11 -24 -54 -51 -276 -168 -145 -76
-261 -139 -256 -141 4 -1 124 59 266 134 160 84 261 132 263 125 7 -22 46 -51
68 -51 32 0 71 36 76 70 9 58 -61 100 -113 70z"/>
</g>
</svg>
