<?xml version="1.0" encoding="UTF-8" standalone="no"?>
<svg
   xmlns:dc="http://purl.org/dc/elements/1.1/"
   xmlns:cc="http://creativecommons.org/ns#"
   xmlns:rdf="http://www.w3.org/1999/02/22-rdf-syntax-ns#"
   xmlns:svg="http://www.w3.org/2000/svg"
   xmlns="http://www.w3.org/2000/svg"
   xmlns:sodipodi="http://sodipodi.sourceforge.net/DTD/sodipodi-0.dtd"
   xmlns:inkscape="http://www.inkscape.org/namespaces/inkscape"
   inkscape:version="1.0 (4035a4fb49, 2020-05-01)"
   sodipodi:docname="2019.04.08_quadrans_pittogramma_RGB_WEB.svg"
   viewBox="0 0 1333.3333 1333.3333"
   height="1333.3333"
   width="1333.3333"
   xml:space="preserve"
   id="svg2"
   version="1.1"><metadata
     id="metadata8"><rdf:RDF><cc:Work
         rdf:about=""><dc:format>image/svg+xml</dc:format><dc:type
           rdf:resource="http://purl.org/dc/dcmitype/StillImage" /><dc:title></dc:title></cc:Work></rdf:RDF></metadata><defs
     id="defs6"><clipPath
       id="clipPath18"
       clipPathUnits="userSpaceOnUse"><path
         id="path16"
         d="M 0,1000 H 1000 V 0 H 0 Z" /></clipPath><clipPath
       id="clipPath30"
       clipPathUnits="userSpaceOnUse"><path
         id="path28"
         d="m 498.945,331.355 h 2.11 v -0.027 h -2.11 z" /></clipPath></defs><sodipodi:namedview
     inkscape:current-layer="g10"
     inkscape:window-maximized="0"
     inkscape:window-y="0"
     inkscape:window-x="0"
     inkscape:cy="666.66663"
     inkscape:cx="666.66663"
     inkscape:zoom="0.63300004"
     showgrid="false"
     id="namedview4"
     inkscape:window-height="480"
     inkscape:window-width="1005"
     inkscape:pageshadow="2"
     inkscape:pageopacity="0"
     guidetolerance="10"
     gridtolerance="10"
     objecttolerance="10"
     borderopacity="1"
     bordercolor="#666666"
     pagecolor="#ffffff" /><g
     transform="matrix(1.3333333,0,0,-1.3333333,0,1333.3333)"
     inkscape:label="2019.04.08_quadrans_pittogramma_RGB_WEB"
     inkscape:groupmode="layer"
     id="g10"><g
       id="g12"><g
         clip-path="url(#clipPath18)"
         id="g14"><g
           transform="translate(498.9414,186.2773)"
           id="g20"><path
             id="path22"
             style="fill:#ff7bac;fill-opacity:1;fill-rule:nonzero;stroke:none"
             d="M 0,0 C 0.354,-0.001 0.705,-0.013 1.059,-0.013 1.413,-0.013 1.764,-0.001 2.118,0 1.764,0.002 1.413,0.014 1.059,0.014 0.705,0.014 0.354,0.002 0,0" /></g><g
           id="g24"><g
             id="g26" /><g
             id="g38"><g
               id="g36"
               clip-path="url(#clipPath30)"><g
                 id="g34"
                 transform="translate(498.9448,331.3418)"><path
                   id="path32"
                   style="fill:#7ac943;fill-opacity:1;fill-rule:nonzero;stroke:none"
                   d="M 0,0 C 0.353,-0.002 0.703,-0.014 1.056,-0.014 1.408,-0.014 1.758,-0.002 2.111,0 1.758,0.001 1.408,0.013 1.056,0.013 0.703,0.013 0.353,0.001 0,0" /></g></g></g></g><g
           transform="translate(224.0059,634.6299)"
           id="g40"><path
             id="path42"
             style="fill:#4b64d8;fill-opacity:1;fill-rule:nonzero;stroke:none"
             d="m 0,0 c 0,-103.866 50.665,-195.883 128.614,-252.735 -56.423,43.931 -92.725,112.489 -92.725,189.538 0,132.607 107.499,240.105 240.106,240.105 132.606,0 240.105,-107.498 240.105,-240.105 0,-112.044 -76.753,-206.144 -180.545,-232.636 139.921,31.077 244.552,155.897 244.552,305.175 0,142.799 -95.742,263.231 -226.535,300.619 -13.4,1.753 -27.063,2.669 -40.942,2.669 C 139.969,312.63 0,172.661 0,0" /></g><g
           transform="translate(536.6357,947.2603)"
           id="g44"><path
             id="path46"
             style="fill:#2fafd0;fill-opacity:1;fill-rule:nonzero;stroke:none"
             d="M 0,0 C 13.879,0 27.542,-0.917 40.942,-2.669 14.896,4.776 -12.545,8.909 -40.893,9.288 c -1.42,0.019 -2.836,0.054 -4.26,0.054 -26.259,0 -51.755,-3.255 -76.125,-9.353 -135.866,-33.996 -236.505,-156.876 -236.505,-303.278 0,-158.782 118.376,-289.905 271.688,-309.961 13.401,-1.752 27.064,-2.668 40.942,-2.668 1.427,0 2.846,0.034 4.268,0.053 -31.102,0.541 -60.76,6.99 -87.903,18.282 -19.572,8.859 -38.056,19.693 -55.228,32.217 -77.949,56.853 -128.614,148.87 -128.614,252.736 C -312.63,-139.969 -172.661,0 0,0" /></g><g
           transform="translate(501.0557,331.3418)"
           id="g48"><path
             id="path50"
             style="fill:#6719e0;fill-opacity:1;fill-rule:nonzero;stroke:none"
             d="m 0,0 c 24.934,-0.067 49.305,-2.521 72.91,-7.115 55.532,-10.805 106.806,-33.526 151.038,-65.417 97.006,69.94 160.165,183.899 160.165,312.623 0,127.706 -62.167,240.875 -157.872,310.951 -21.36,16.463 -44.902,30.231 -70.129,40.781 -47.995,21.48 -101.182,33.437 -157.167,33.437 -1.424,0 -2.838,-0.038 -4.258,-0.053 28.348,-0.38 55.789,-4.512 81.835,-11.958 C 207.315,575.861 303.058,455.429 303.058,312.63 303.058,163.353 198.426,38.532 58.505,7.455 37.925,2.885 16.582,0.347 -5.305,0.054 -4.24,0.035 -3.179,0.004 -2.111,0 -1.758,0.001 -1.408,0.013 -1.055,0.013 -0.703,0.013 -0.353,0.001 0,0" /></g><g
           transform="translate(725.0039,258.8096)"
           id="g52"><path
             id="path54"
             style="fill:#13fac8;fill-opacity:1;fill-rule:nonzero;stroke:none"
             d="m 0,0 c -63.034,45.448 -140.355,72.308 -223.948,72.532 -0.353,-0.002 -0.703,-0.013 -1.055,-0.013 -0.353,0 -0.703,0.011 -1.056,0.013 -1.068,0.004 -2.129,0.035 -3.194,0.054 -1.422,-0.02 -2.84,-0.054 -4.268,-0.054 -13.878,0 -27.541,0.916 -40.942,2.669 -153.312,20.056 -271.688,151.179 -271.688,309.962 0,146.401 100.639,269.281 236.505,303.277 -172,-38.573 -300.527,-192.175 -300.527,-375.816 0,-128.725 63.16,-242.684 160.166,-312.624 63.033,-45.447 140.352,-72.307 223.944,-72.532 0.354,0.002 0.705,0.013 1.06,0.013 0.353,0 0.705,-0.011 1.059,-0.013 97.538,-0.422 181.289,-59.03 218.477,-142.88 l 105.569,109.374 C 73.744,-64.655 39.715,-28.634 0,0" /></g></g></g></g></svg>
